<?xml version="1.0" standalone="no"?>
<!DOCTYPE svg PUBLIC "-//W3C//DTD SVG 20010904//EN"
 "http://www.w3.org/TR/2001/REC-SVG-20010904/DTD/svg10.dtd">
<svg version="1.0" xmlns="http://www.w3.org/2000/svg"
 width="2947.000000pt" height="2947.000000pt" viewBox="0 0 2947.000000 2947.000000"
 preserveAspectRatio="xMidYMid meet">
<metadata>
Created by potrace 1.14, written by Peter Selinger 2001-2017
</metadata>
<g transform="translate(0.000000,2947.000000) scale(0.100000,-0.100000)"
fill="#000000" stroke="none">
<path d="M14637 29444 c-1 -1 -105 -4 -232 -8 -126 -3 -268 -8 -315 -11 -131
-6 -290 -16 -345 -20 -27 -2 -88 -7 -135 -10 -86 -5 -144 -10 -235 -20 -53 -6
-103 -11 -200 -19 -56 -6 -82 -8 -180 -21 -22 -2 -62 -7 -90 -10 -27 -3 -63
-8 -80 -10 -16 -2 -52 -7 -80 -10 -27 -3 -61 -8 -75 -10 -14 -3 -45 -7 -70
-10 -25 -3 -70 -10 -100 -15 -30 -5 -75 -12 -100 -15 -288 -39 -835 -150
-1224 -247 -89 -22 -168 -41 -176 -43 -65 -15 -447 -122 -459 -129 -4 -3 -18
-7 -32 -10 -99 -21 -643 -202 -947 -315 -519 -194 -1036 -421 -1522 -669 -242
-124 -236 -121 -470 -248 -217 -119 -557 -321 -820 -488 -220 -139 -771 -519
-860 -593 -8 -7 -44 -34 -80 -60 -116 -87 -489 -380 -510 -403 -3 -3 -32 -27
-65 -55 -93 -78 -101 -85 -245 -210 -116 -101 -275 -247 -410 -373 -169 -160
-530 -528 -702 -717 -25 -27 -58 -63 -73 -80 -76 -83 -343 -394 -429 -500 -54
-66 -106 -129 -115 -140 -315 -380 -786 -1043 -1086 -1530 -54 -88 -108 -176
-120 -195 -33 -52 -110 -183 -118 -200 -4 -8 -17 -31 -28 -50 -23 -37 -140
-248 -204 -365 -128 -236 -349 -688 -470 -965 -42 -96 -83 -188 -90 -205 -7
-16 -30 -70 -50 -120 -20 -49 -40 -99 -45 -110 -6 -11 -29 -72 -53 -135 -24
-63 -48 -124 -52 -135 -5 -11 -9 -22 -10 -25 -1 -3 -4 -12 -8 -20 -37 -93
-211 -597 -250 -725 -52 -169 -119 -392 -122 -405 -2 -8 -22 -82 -45 -165 -87
-317 -224 -911 -255 -1105 -3 -19 -10 -55 -15 -80 -11 -48 -75 -434 -84 -510
-8 -56 -16 -117 -21 -150 -3 -14 -7 -45 -10 -70 -12 -96 -17 -136 -20 -160 -2
-14 -7 -56 -11 -95 -3 -38 -8 -77 -9 -86 -2 -9 -6 -52 -10 -95 -4 -43 -8 -90
-10 -104 -2 -14 -7 -65 -10 -115 -4 -49 -8 -104 -10 -121 -2 -16 -7 -82 -10
-145 -4 -63 -8 -136 -10 -164 -24 -312 -24 -1387 0 -1560 2 -16 7 -86 10 -155
3 -69 7 -138 9 -155 2 -16 7 -73 11 -125 4 -52 9 -106 10 -120 2 -14 6 -56 10
-95 4 -38 8 -81 10 -95 2 -14 6 -54 10 -90 3 -36 15 -132 26 -215 11 -82 22
-164 23 -181 2 -17 7 -51 11 -75 3 -24 9 -57 11 -74 3 -16 9 -55 14 -85 5 -30
12 -73 15 -95 3 -22 8 -53 11 -70 5 -32 61 -342 69 -385 2 -14 7 -36 10 -50
25 -132 127 -591 146 -665 6 -22 12 -47 14 -55 2 -8 19 -78 40 -155 124 -475
281 -972 440 -1400 88 -234 110 -294 125 -330 7 -16 14 -34 16 -40 3 -15 156
-376 204 -485 44 -98 55 -123 145 -320 217 -477 465 -933 840 -1543 135 -220
593 -881 712 -1027 7 -8 72 -91 144 -185 114 -147 437 -541 480 -585 8 -8 43
-49 79 -90 36 -41 70 -80 75 -86 6 -6 53 -57 105 -114 169 -185 261 -280 466
-485 381 -380 656 -629 1107 -1001 176 -145 646 -501 872 -660 158 -112 464
-314 474 -314 5 0 11 -4 13 -8 6 -17 492 -304 763 -452 178 -97 625 -318 850
-420 88 -40 194 -88 235 -107 41 -19 91 -42 110 -50 93 -41 120 -54 185 -84
124 -57 695 -299 875 -371 313 -125 904 -343 985 -362 6 -2 30 -9 55 -16 89
-27 349 -98 380 -104 14 -3 63 -15 110 -26 103 -24 490 -103 615 -124 50 -9
101 -18 115 -21 13 -2 42 -7 65 -10 22 -3 47 -8 55 -10 8 -3 33 -7 55 -10 22
-2 51 -7 65 -10 13 -2 40 -7 60 -10 20 -3 45 -7 57 -9 11 -3 38 -7 59 -10 22
-4 81 -13 133 -22 52 -8 118 -17 145 -20 28 -3 58 -7 66 -9 8 -3 33 -7 55 -10
22 -3 54 -7 70 -10 17 -2 57 -7 90 -10 33 -4 71 -8 85 -11 34 -5 172 -22 245
-29 33 -3 75 -8 94 -11 18 -2 63 -7 100 -9 36 -3 80 -7 96 -10 17 -2 66 -6
110 -10 44 -3 98 -8 120 -10 35 -4 92 -8 270 -20 343 -23 1050 -23 1245 -1 19
3 82 7 140 11 58 3 121 8 140 10 19 2 65 7 101 9 37 3 82 8 100 10 19 3 61 8
94 11 58 6 268 31 330 40 17 2 50 7 75 10 68 9 102 14 130 19 23 4 218 34 265
41 58 8 389 66 394 69 3 2 28 7 55 10 27 4 52 9 55 11 3 1 24 6 46 9 72 12 99
17 188 37 48 10 105 22 125 25 20 3 66 13 102 21 36 8 74 16 85 18 31 5 114
22 190 40 39 9 81 19 95 21 31 6 437 110 505 129 680 199 1206 388 1825 657
25 10 54 23 65 28 11 5 60 27 108 49 49 23 91 41 94 41 2 0 46 20 96 44 51 24
119 56 152 71 33 15 186 90 340 165 417 205 645 328 1023 554 112 67 211 126
220 131 172 98 860 570 1032 708 9 7 54 41 100 77 72 54 286 225 355 282 160
133 222 186 235 198 9 8 40 36 70 62 30 26 69 59 86 75 17 15 66 60 109 98 43
39 91 81 105 95 15 14 85 79 156 145 294 273 727 717 1024 1050 25 27 47 52
50 55 3 3 59 68 124 145 65 77 131 155 146 172 16 18 52 63 81 100 30 38 56
70 59 73 13 11 162 203 276 355 306 407 569 800 811 1210 105 179 127 218 230
405 104 189 319 613 413 815 23 50 56 119 73 155 17 36 31 67 32 70 0 3 13 30
27 62 55 116 183 421 273 648 111 282 107 273 111 285 1 6 29 82 62 170 143
386 324 978 431 1402 33 132 62 252 65 267 3 14 7 34 10 44 3 9 7 28 10 42 3
14 7 34 10 45 5 24 56 261 62 290 2 11 13 65 24 120 11 55 22 116 25 135 5 29
29 163 40 221 2 9 6 34 9 55 4 22 11 68 17 104 6 36 12 81 15 100 2 19 6 46 9
60 3 14 7 45 10 70 3 25 7 56 10 70 2 14 6 50 10 80 4 30 9 68 11 84 3 15 7
51 9 80 3 28 7 62 9 76 3 14 8 54 11 90 3 36 8 81 10 100 8 70 22 226 29 330
3 36 8 100 11 142 7 85 11 164 21 378 10 212 10 684 0 840 -4 74 -9 164 -11
200 -8 178 -16 331 -20 385 -3 33 -7 103 -10 155 -5 106 -13 234 -21 325 -2
33 -7 92 -9 130 -6 84 -14 165 -20 220 -3 22 -7 69 -10 105 -3 36 -7 76 -9 90
-4 23 -7 46 -22 168 -3 26 -7 54 -9 62 -2 8 -7 38 -10 65 -8 62 -9 70 -45 290
-12 72 -24 144 -27 160 -2 17 -15 84 -28 150 -13 66 -27 134 -30 150 -11 64
-17 90 -61 287 -76 344 -138 582 -251 963 -38 130 -153 492 -170 535 -3 8 -7
20 -9 25 -8 34 -175 487 -199 540 -7 17 -39 95 -71 175 -63 158 -214 507 -289
665 -150 319 -398 800 -512 993 -24 41 -43 75 -43 78 0 2 -13 25 -29 51 -15
27 -77 130 -137 231 -119 201 -122 206 -208 343 -120 191 -519 774 -577 843
-5 6 -28 36 -50 66 -59 81 -72 98 -218 284 -116 148 -314 391 -331 406 -3 3
-41 48 -85 100 -44 52 -87 102 -95 110 -8 8 -33 35 -54 60 -180 207 -608 647
-872 896 -104 99 -250 231 -369 334 -71 62 -149 129 -171 149 -23 20 -59 50
-80 68 -22 17 -49 39 -61 50 -93 79 -313 254 -493 390 -457 346 -936 668
-1445 973 -190 113 -200 119 -372 216 -557 315 -1171 609 -1760 845 -346 138
-801 296 -1169 404 -172 51 -623 171 -684 182 -14 2 -70 15 -125 28 -55 13
-136 31 -180 41 -44 9 -89 18 -100 20 -11 2 -36 7 -55 10 -19 3 -43 7 -52 10
-10 3 -30 7 -45 10 -16 3 -71 13 -123 24 -52 11 -111 22 -130 25 -19 3 -46 8
-60 10 -61 13 -153 29 -217 40 -18 3 -45 7 -60 10 -16 2 -44 7 -63 10 -19 3
-60 10 -90 15 -30 5 -73 12 -95 15 -22 3 -51 8 -65 10 -14 2 -78 11 -142 20
-65 9 -125 18 -135 19 -10 2 -45 7 -78 10 -33 4 -75 9 -92 12 -76 10 -102 13
-168 19 -38 4 -77 9 -86 10 -9 2 -52 6 -95 10 -43 3 -93 8 -109 10 -17 2 -67
7 -110 10 -44 4 -96 8 -115 10 -19 2 -87 6 -150 10 -63 4 -140 8 -170 11 -101
7 -747 23 -753 18z m73 -1324 c146 0 342 1 435 2 154 2 474 -7 600 -16 184
-14 220 -18 350 -31 90 -10 126 -14 165 -20 19 -3 58 -7 85 -11 28 -3 61 -7
75 -9 14 -3 72 -11 130 -20 58 -9 116 -18 130 -20 14 -2 43 -7 65 -10 56 -8
251 -44 305 -55 25 -5 56 -12 70 -14 46 -8 224 -45 345 -71 66 -14 129 -27
140 -29 11 -2 58 -13 105 -25 47 -11 96 -22 110 -25 105 -21 615 -152 785
-202 153 -45 344 -104 370 -114 11 -4 43 -14 70 -23 154 -49 630 -225 736
-271 19 -8 75 -31 124 -51 100 -41 377 -163 500 -220 221 -102 738 -369 805
-416 14 -9 27 -16 30 -16 14 2 473 -272 720 -430 264 -170 648 -435 805 -555
6 -5 60 -45 120 -90 269 -200 657 -515 890 -723 391 -348 801 -761 1115 -1125
112 -129 212 -248 320 -381 19 -24 70 -89 113 -144 43 -55 83 -107 90 -115 7
-8 23 -31 37 -50 13 -19 28 -39 33 -45 126 -154 593 -853 726 -1088 10 -18 50
-84 88 -147 208 -343 540 -977 698 -1330 77 -172 81 -182 113 -255 206 -477
455 -1179 536 -1515 2 -8 10 -35 17 -60 7 -25 13 -49 15 -55 1 -5 12 -48 24
-95 12 -47 23 -92 25 -100 2 -8 17 -73 35 -145 18 -71 33 -137 35 -146 2 -9
13 -61 25 -115 12 -55 23 -106 25 -114 26 -122 102 -519 109 -575 2 -11 6 -33
9 -50 4 -16 9 -46 11 -65 5 -35 14 -93 21 -140 3 -14 9 -59 15 -101 6 -41 12
-84 14 -95 2 -10 7 -48 11 -84 9 -82 13 -116 19 -160 3 -19 8 -60 11 -90 3
-30 8 -71 10 -90 2 -19 7 -62 10 -95 3 -33 8 -78 10 -100 12 -116 19 -208 29
-390 3 -55 8 -127 11 -160 14 -168 19 -369 19 -760 0 -379 -4 -559 -19 -780
-10 -146 -16 -233 -20 -270 -2 -22 -7 -71 -10 -110 -3 -38 -8 -86 -10 -105 -2
-19 -7 -64 -10 -100 -4 -36 -8 -72 -10 -80 -2 -8 -6 -44 -9 -80 -4 -36 -11
-90 -16 -120 -5 -30 -11 -73 -14 -95 -6 -51 -25 -182 -31 -215 -2 -14 -11 -68
-20 -120 -9 -52 -18 -108 -21 -125 -3 -16 -7 -38 -10 -48 -3 -11 -7 -29 -9
-40 -18 -133 -138 -662 -219 -962 -60 -222 -227 -772 -242 -796 -3 -5 -7 -17
-9 -26 -7 -40 -209 -587 -260 -708 -7 -16 -32 -77 -55 -135 -48 -120 -120
-287 -160 -375 -16 -33 -40 -87 -55 -120 -69 -157 -370 -767 -395 -800 -4 -5
-26 -46 -50 -90 -262 -489 -670 -1128 -1009 -1580 -84 -113 -362 -464 -403
-510 -15 -16 -59 -68 -99 -115 -144 -169 -200 -232 -390 -434 -118 -126 -413
-420 -558 -556 -74 -69 -143 -134 -155 -145 -21 -20 -185 -165 -241 -214 -43
-37 -178 -154 -191 -166 -22 -19 -59 -49 -219 -180 -310 -252 -668 -518 -995
-739 -41 -28 -77 -54 -80 -57 -3 -3 -9 -8 -15 -10 -5 -2 -57 -35 -115 -73
-253 -166 -473 -301 -740 -453 -685 -391 -1472 -758 -2120 -988 -645 -229
-1135 -373 -1735 -509 -134 -30 -445 -93 -500 -101 -22 -4 -47 -8 -55 -10 -8
-2 -31 -7 -50 -10 -19 -3 -46 -7 -60 -10 -14 -3 -38 -7 -55 -9 -16 -3 -70 -12
-120 -20 -49 -9 -110 -18 -135 -21 -25 -3 -56 -7 -70 -10 -13 -3 -42 -7 -65
-10 -22 -3 -57 -8 -78 -11 -20 -3 -47 -7 -60 -8 -12 -2 -51 -7 -87 -11 -36 -4
-72 -9 -80 -10 -8 -2 -49 -6 -90 -10 -41 -3 -86 -8 -100 -10 -14 -2 -65 -7
-115 -11 -49 -3 -97 -8 -107 -9 -9 -2 -72 -7 -140 -10 -67 -4 -139 -9 -158
-10 -224 -22 -982 -22 -1305 0 -22 1 -89 5 -150 9 -60 4 -121 9 -135 11 -14 2
-65 6 -114 10 -50 4 -97 8 -105 10 -9 1 -50 6 -91 10 -41 4 -83 9 -92 10 -9 2
-48 7 -85 10 -37 4 -75 9 -83 10 -26 5 -93 14 -140 20 -49 7 -153 23 -185 29
-11 2 -40 7 -65 11 -25 4 -52 9 -61 10 -9 2 -32 6 -50 9 -61 10 -243 45 -314
60 -39 8 -82 17 -95 19 -14 3 -97 22 -185 42 -88 20 -167 38 -175 40 -8 2 -55
13 -105 25 -49 12 -97 24 -105 26 -202 48 -544 145 -845 241 -60 19 -117 36
-125 38 -19 5 -153 51 -365 127 -162 57 -512 192 -579 222 -17 8 -76 33 -131
56 -89 38 -170 74 -385 172 -82 38 -418 206 -530 265 -104 56 -189 102 -390
211 -36 19 -105 59 -155 87 -49 29 -110 64 -135 78 -56 31 -323 191 -370 221
-19 13 -105 67 -190 121 -174 111 -352 231 -513 344 -105 74 -487 358 -497
370 -3 3 -25 22 -50 41 -44 34 -325 265 -346 285 -6 5 -39 35 -73 65 -198 174
-341 310 -667 635 -312 312 -419 423 -575 596 -592 656 -1013 1209 -1441 1894
-119 190 -276 456 -340 575 -17 30 -33 60 -38 65 -4 6 -27 48 -52 95 -25 47
-65 121 -88 165 -55 102 -217 427 -263 525 -19 41 -51 111 -72 155 -51 111
-55 118 -138 315 -89 210 -192 470 -196 493 0 4 -7 20 -14 35 -8 15 -29 70
-47 122 -17 52 -38 109 -45 125 -21 49 -170 509 -215 665 -23 80 -50 173 -60
208 -49 163 -222 897 -235 1001 -2 14 -11 60 -19 101 -19 91 -60 336 -81 485
-9 61 -18 121 -20 135 -2 14 -6 50 -10 80 -4 30 -8 66 -10 80 -2 14 -6 50 -10
80 -3 30 -8 71 -10 90 -11 92 -22 219 -30 345 -3 50 -8 117 -10 150 -14 200
-19 406 -19 760 0 417 8 661 29 947 3 37 7 100 10 140 3 40 7 91 10 113 2 22
7 74 10 115 3 41 8 91 10 110 2 19 6 62 10 95 3 33 8 78 10 100 3 22 7 67 11
99 3 33 8 69 10 80 2 12 6 46 9 76 3 30 9 84 15 120 5 36 16 117 25 180 17
122 23 160 30 200 2 14 7 43 10 65 3 23 8 52 10 65 3 14 8 39 10 55 3 17 14
75 25 130 10 55 21 114 24 132 4 17 18 85 32 150 14 65 28 129 30 142 3 12 12
53 20 90 9 36 17 74 20 84 2 10 6 27 9 37 3 10 7 27 9 37 28 140 187 696 276
961 128 385 297 821 431 1117 13 28 24 52 24 55 1 3 14 32 29 65 16 33 44 94
64 135 53 115 268 547 305 615 18 33 55 101 81 150 126 234 334 588 480 815
126 196 392 590 453 669 6 9 67 90 135 181 174 233 507 652 548 690 3 3 32 36
65 75 33 38 76 88 96 110 51 56 73 80 169 186 46 52 206 216 355 364 229 230
337 331 615 579 201 180 743 613 915 732 16 11 71 50 120 86 145 104 398 276
575 390 30 19 93 60 140 90 172 110 585 354 783 461 37 20 95 52 130 71 57 31
552 283 562 286 3 0 40 17 82 36 43 20 98 45 123 56 25 11 68 30 95 43 84 39
323 140 450 190 154 61 455 175 475 180 8 2 92 31 185 63 139 48 510 164 590
185 11 3 68 19 127 36 143 41 542 141 628 157 14 3 50 11 80 19 30 7 82 19
115 25 102 19 110 21 125 25 8 2 31 7 50 10 19 3 105 19 190 35 85 16 171 32
190 35 19 3 42 8 50 10 8 2 38 6 65 10 28 3 57 8 65 10 8 2 38 6 65 10 28 3
57 8 65 10 8 2 40 6 70 10 30 3 64 7 75 9 12 2 51 7 87 10 37 4 75 9 85 10 11
2 59 7 109 11 49 4 100 8 114 10 25 4 137 12 275 21 39 2 156 7 260 10 105 4
191 7 192 8 1 0 77 0 170 -2 92 -1 287 -2 433 -2z"/>
<path d="M14397 27364 c-1 -1 -99 -5 -217 -8 -205 -6 -255 -8 -450 -21 -207
-13 -240 -16 -291 -20 -30 -3 -79 -8 -109 -10 -114 -10 -166 -15 -190 -20 -14
-2 -59 -7 -100 -10 -41 -3 -84 -7 -95 -9 -11 -2 -51 -7 -88 -11 -37 -3 -76 -8
-85 -10 -9 -1 -44 -6 -77 -9 -33 -4 -71 -9 -85 -11 -14 -2 -45 -7 -70 -10 -25
-3 -70 -10 -100 -15 -30 -5 -73 -11 -95 -14 -118 -15 -479 -83 -723 -137 -73
-16 -143 -31 -155 -33 -12 -3 -22 -5 -22 -6 0 -1 -7 -3 -15 -5 -8 -1 -80 -19
-160 -40 -911 -233 -1672 -538 -2495 -1000 -58 -33 -341 -202 -370 -222 -11
-7 -101 -67 -200 -132 -233 -155 -481 -333 -590 -422 -11 -9 -69 -56 -130
-105 -89 -71 -268 -221 -321 -269 -6 -5 -53 -48 -105 -95 -92 -83 -525 -513
-605 -600 -49 -55 -241 -274 -307 -352 -26 -31 -97 -119 -157 -195 -60 -76
-113 -143 -118 -148 -68 -81 -369 -513 -506 -728 -49 -76 -104 -154 -122 -174
-29 -31 -38 -34 -71 -30 -21 3 -72 18 -113 33 -98 37 -262 44 -357 15 -221
-67 -377 -248 -419 -486 -29 -162 30 -347 152 -478 72 -78 134 -120 509 -349
306 -187 427 -267 550 -360 239 -182 439 -363 635 -575 120 -130 213 -245 326
-405 40 -57 77 -108 81 -114 10 -12 16 -22 86 -139 97 -161 195 -349 267 -515
30 -68 106 -273 115 -310 2 -8 11 -40 20 -70 25 -89 72 -308 85 -395 7 -44 13
-87 15 -95 2 -8 6 -49 10 -90 4 -41 9 -82 10 -91 19 -97 30 -1157 13 -1175
-13 -12 -427 131 -593 206 -506 229 -866 475 -1245 850 -82 82 -131 136 -267
293 -36 42 -212 283 -264 362 -148 224 -277 465 -422 785 -48 108 -150 369
-222 570 -15 41 -30 84 -35 95 -5 11 -20 52 -33 90 -14 39 -40 109 -58 157
l-32 87 -91 -47 c-50 -25 -143 -75 -206 -110 -106 -59 -361 -187 -506 -255
-157 -74 -226 -211 -190 -377 17 -76 88 -304 132 -418 14 -37 27 -71 28 -77 2
-5 7 -19 11 -30 13 -32 76 -188 88 -215 6 -14 11 -27 12 -30 7 -21 48 -106
104 -220 249 -498 495 -861 876 -1290 66 -74 334 -341 415 -412 61 -54 170
-145 304 -255 48 -39 281 -206 376 -269 399 -267 848 -485 1305 -635 137 -46
204 -66 355 -105 90 -24 128 -44 140 -75 9 -21 13 -302 15 -1081 1 -579 5
-1066 9 -1083 3 -16 11 -52 17 -80 13 -59 69 -184 99 -223 114 -146 253 -220
429 -227 109 -5 190 10 276 50 190 87 303 247 351 495 4 19 7 274 8 567 1 292
3 534 6 537 9 8 174 15 496 21 756 14 946 20 1180 40 27 3 79 7 115 10 99 8
176 15 197 20 10 2 43 6 73 10 958 117 1926 513 2739 1120 117 88 348 272 370
295 3 3 43 39 90 80 90 79 422 408 505 500 86 95 159 181 254 300 50 63 96
121 103 129 6 7 47 63 91 125 380 529 690 1146 891 1772 57 176 122 405 141
494 2 8 12 53 23 100 32 133 60 275 98 495 9 53 10 59 18 135 4 35 9 67 11 70
2 3 6 34 10 70 3 36 8 76 10 90 8 55 15 126 30 305 10 114 31 501 40 715 14
338 19 866 18 2041 0 1055 -3 1344 -13 1375 -38 118 -144 186 -285 185 -57 -1
-95 -3 -300 -16 -137 -9 -286 -14 -540 -20 -274 -6 -482 -16 -615 -31 -25 -2
-70 -7 -100 -9 -114 -10 -176 -16 -200 -20 -14 -2 -54 -7 -90 -11 -36 -3 -67
-7 -70 -9 -3 -1 -36 -6 -75 -10 -38 -4 -72 -8 -75 -10 -3 -2 -33 -6 -65 -10
-33 -3 -67 -8 -75 -10 -8 -3 -33 -7 -55 -10 -22 -3 -53 -9 -70 -12 -16 -3 -39
-7 -50 -9 -30 -5 -75 -13 -125 -24 -25 -5 -61 -12 -80 -15 -19 -4 -55 -11 -80
-16 -60 -14 -79 -18 -115 -25 -16 -3 -84 -19 -150 -35 -66 -17 -128 -32 -138
-34 -10 -2 -27 -7 -37 -10 -10 -3 -28 -8 -40 -10 -53 -10 -402 -112 -570 -167
-505 -164 -1073 -404 -1430 -603 -47 -27 -103 -58 -125 -70 -278 -152 -749
-476 -1020 -703 -211 -177 -538 -491 -700 -672 -32 -36 -72 -81 -89 -100 -77
-86 -273 -330 -339 -421 -9 -13 -43 -60 -75 -104 -203 -278 -340 -512 -561
-952 -56 -112 -105 -203 -109 -203 -4 0 -25 25 -46 55 -22 30 -47 63 -55 73
-9 9 -43 51 -76 92 -245 307 -529 587 -810 800 -60 46 -113 88 -117 94 -10 15
12 61 113 228 333 552 689 1007 1144 1463 271 272 491 469 755 678 167 132
148 118 190 147 19 14 37 27 40 30 3 3 43 33 90 66 799 570 1618 958 2730
1294 205 62 545 153 650 174 14 3 81 17 150 31 158 34 145 31 275 54 94 17
153 26 295 46 14 2 43 6 65 9 22 3 63 8 90 11 28 3 66 7 85 10 86 10 269 23
445 30 135 6 1098 7 1360 1 841 -18 1043 -26 1135 -41 14 -3 48 -7 75 -11 28
-3 61 -7 75 -10 24 -4 115 -18 195 -29 22 -3 49 -7 60 -10 11 -2 58 -7 105
-11 47 -3 88 -8 92 -11 11 -6 147 -5 193 2 115 17 235 78 324 164 67 64 141
166 141 194 0 7 4 17 10 23 21 21 45 168 39 239 -9 100 -18 134 -61 219 -109
218 -330 363 -597 391 -31 4 -81 10 -111 15 -56 10 -252 39 -303 45 -71 10
-113 16 -127 20 -8 2 -40 7 -70 10 -30 3 -64 8 -75 10 -11 3 -36 7 -55 9 -19
3 -73 10 -120 16 -47 6 -96 13 -110 15 -14 2 -54 6 -90 10 -36 4 -76 8 -90 10
-28 4 -138 15 -220 21 -126 10 -775 25 -783 18z m-314 -3750 c-43 -42 -244
-239 -448 -439 -203 -199 -428 -420 -500 -490 -71 -70 -305 -299 -519 -509
-214 -209 -439 -430 -501 -491 -360 -353 -920 -902 -1113 -1091 -123 -121
-227 -220 -230 -221 -4 -2 -7 502 -7 1120 0 1202 -2 1149 49 1219 31 43 118
99 298 191 426 219 856 384 1348 518 19 5 46 12 60 15 14 3 34 8 45 11 11 4
25 8 30 9 6 1 53 12 105 24 52 12 106 24 120 26 14 3 45 10 70 15 25 6 56 13
70 15 14 2 34 6 46 9 12 3 39 7 60 10 21 4 46 8 54 10 8 3 33 7 55 10 22 3 51
7 65 10 14 3 45 8 70 11 25 3 52 7 60 9 8 2 42 7 75 11 33 3 68 8 79 10 10 2
44 6 75 10 31 3 65 8 76 10 11 2 53 7 94 10 42 3 83 7 92 9 9 2 55 6 101 10
45 4 84 8 85 9 1 1 27 3 58 4 l56 2 -78 -76z m551 -1889 c-1 -379 -4 -730 -8
-780 -3 -49 -9 -128 -12 -175 -2 -47 -7 -101 -9 -120 -2 -19 -7 -64 -11 -100
-7 -80 -8 -90 -39 -285 -12 -73 -54 -260 -89 -396 -80 -307 -225 -741 -316
-944 -10 -22 -37 -82 -59 -133 -391 -889 -1002 -1628 -1791 -2164 -510 -347
-1011 -574 -1615 -733 -97 -26 -364 -75 -490 -90 -27 -4 -61 -8 -75 -10 -23
-4 -51 -6 -225 -21 -38 -3 -397 -7 -797 -9 -778 -3 -732 -6 -743 40 -31 125
-34 265 -9 360 22 83 88 208 155 291 25 32 322 327 690 687 129 126 722 715
1319 1310 935 932 1447 1438 1900 1877 58 56 236 230 395 385 160 156 324 315
365 355 41 40 191 185 333 324 143 138 294 285 337 326 43 41 192 186 332 321
139 136 298 290 353 343 l100 97 5 -33 c3 -18 4 -343 4 -723z m-5119 -730 c4
-374 8 -923 10 -1220 l3 -540 -30 -62 c-30 -64 -68 -109 -283 -331 -206 -214
-272 -281 -474 -488 -108 -110 -235 -241 -283 -291 -49 -50 -88 -86 -89 -80 0
7 -2 19 -4 27 -64 313 -88 874 -50 1195 2 17 6 55 10 85 6 55 13 98 40 255 17
98 90 372 131 495 157 464 429 947 755 1345 80 97 140 168 178 207 24 27 51
57 60 67 9 11 16 19 17 18 1 -1 5 -308 9 -682z"/>
<path d="M18128 26774 c-105 -20 -180 -66 -237 -144 -79 -110 -89 -316 -21
-450 43 -85 137 -158 244 -190 40 -13 179 -16 232 -6 196 38 326 194 325 391
-1 68 -8 101 -35 161 -54 119 -195 221 -328 239 -87 12 -114 11 -180 -1z"/>
<path d="M20085 26053 c-307 -64 -523 -324 -523 -626 0 -199 85 -366 258 -509
40 -33 154 -98 184 -105 6 -1 35 -9 63 -17 128 -35 298 -9 431 67 352 200 461
604 249 920 -84 127 -230 234 -357 263 -19 4 -42 10 -50 12 -41 11 -192 9
-255 -5z"/>
<path d="M17717 25774 c-1 -1 -38 -4 -82 -7 -397 -28 -792 -283 -962 -620 -36
-73 -96 -227 -87 -227 2 0 0 -9 -5 -19 -16 -30 -43 -208 -44 -296 -6 -451 232
-853 628 -1057 183 -94 338 -129 545 -124 220 6 384 52 682 190 125 58 135 57
279 -10 156 -74 959 -475 1099 -549 101 -54 306 -185 362 -231 l27 -22 -117
-60 c-64 -33 -200 -102 -302 -154 -256 -132 -712 -364 -975 -498 -193 -98
-224 -111 -257 -106 -47 8 -157 55 -343 149 -83 42 -187 89 -232 106 -291 107
-616 70 -887 -101 -28 -18 -53 -35 -56 -38 -3 -3 -25 -21 -50 -41 -219 -177
-365 -427 -426 -733 -20 -101 -23 -247 -9 -359 34 -259 126 -449 317 -657 78
-86 232 -194 358 -253 145 -67 218 -82 400 -82 107 0 234 10 251 20 3 3 24 7
45 11 68 10 271 82 366 129 51 26 126 70 166 98 157 108 232 195 317 365 93
184 178 254 420 347 90 35 351 163 525 257 36 19 121 65 190 100 69 36 168 88
220 115 52 28 151 80 220 116 69 36 154 81 190 100 142 75 272 143 410 214 80
42 149 79 154 84 5 4 34 -9 65 -30 276 -186 619 -336 882 -386 13 -3 35 -7 49
-9 69 -14 146 -19 260 -20 113 -1 168 3 268 18 61 9 218 55 293 86 62 26 229
115 264 142 254 193 414 367 538 584 44 76 140 284 132 284 -2 0 2 15 10 33
18 43 54 187 61 240 3 23 7 48 9 55 7 20 19 192 18 262 0 78 -12 240 -17 249
-2 3 -7 31 -11 61 -4 30 -9 58 -12 63 -2 4 -7 20 -9 35 -22 122 -130 368 -222
508 -75 112 -97 139 -202 244 -237 239 -571 422 -865 474 -16 3 -41 8 -55 11
-117 23 -406 24 -526 1 -12 -3 -37 -7 -55 -10 -19 -3 -45 -8 -59 -11 -14 -3
-36 -8 -50 -11 -74 -14 -230 -73 -345 -129 -304 -151 -538 -382 -780 -770 -9
-14 -21 -10 -100 33 -49 26 -139 75 -200 107 -60 32 -135 71 -165 88 -100 53
-204 109 -265 142 -33 18 -94 50 -135 72 -41 22 -95 52 -120 65 -25 14 -85 47
-135 73 -132 70 -192 102 -375 202 -91 49 -193 104 -226 122 -67 35 -71 41
-110 151 -36 101 -82 190 -142 276 -56 79 -192 218 -256 261 -22 15 -43 31
-46 34 -12 14 -218 133 -275 159 -101 45 -254 78 -388 83 -21 1 -39 1 -40 1z
m4653 -2100 c174 -50 302 -179 354 -354 23 -75 30 -220 15 -284 -37 -161 -166
-305 -327 -366 -118 -45 -302 -29 -423 37 -199 108 -306 341 -264 573 10 53
60 155 101 208 135 171 346 243 544 186z"/>
<path d="M24327 22314 c-1 -1 -31 -4 -67 -7 -247 -22 -461 -196 -547 -446 -23
-65 -27 -93 -27 -191 1 -98 4 -125 26 -186 56 -156 148 -275 278 -364 244
-166 520 -136 759 82 104 95 188 231 216 350 45 191 -19 407 -164 558 -80 82
-151 129 -251 164 -61 21 -213 49 -223 40z"/>
<path d="M22370 21063 c-14 -2 -52 -13 -85 -25 -281 -99 -400 -413 -263 -693
39 -80 130 -178 203 -219 184 -101 443 -59 601 99 62 61 114 149 130 215 4 19
9 42 11 50 5 23 4 141 -2 171 -27 143 -133 279 -270 345 -40 18 -79 34 -88 34
-8 0 -17 4 -19 10 -3 10 -171 20 -218 13z"/>
<path d="M24877 20729 c-27 -4 -68 -10 -90 -14 -23 -3 -60 -10 -82 -16 -22 -5
-51 -12 -65 -15 -56 -12 -181 -58 -270 -100 -142 -67 -277 -162 -393 -277
-140 -138 -208 -230 -317 -432 -82 -152 -125 -195 -215 -212 -29 -5 -439 -9
-980 -8 -1070 1 -963 -10 -1041 106 -24 37 -44 69 -44 73 0 3 -23 40 -51 81
-137 201 -333 357 -556 441 -168 63 -412 80 -593 40 -346 -76 -643 -302 -802
-611 -44 -86 -101 -251 -112 -325 -15 -97 -17 -123 -16 -215 0 -55 2 -111 4
-125 3 -14 7 -43 11 -65 39 -270 207 -566 403 -712 20 -16 39 -30 42 -33 48
-53 296 -164 411 -184 19 -3 50 -10 69 -14 58 -14 279 -12 372 4 180 29 370
105 528 209 47 31 105 68 130 82 l45 26 360 -1 c1638 -2 1849 -5 1885 -23 46
-22 60 -39 110 -134 48 -90 152 -250 202 -310 104 -125 254 -258 388 -344 71
-46 242 -131 263 -131 7 0 17 -4 23 -9 10 -10 154 -54 224 -70 127 -27 247
-38 400 -35 154 2 228 11 417 50 60 12 218 70 299 110 386 189 692 545 837
975 207 610 52 1285 -400 1744 -232 236 -561 411 -868 460 -22 3 -62 10 -90
15 -62 10 -373 10 -438 -1z m395 -1209 c160 -56 293 -210 324 -372 30 -163
-20 -349 -119 -446 -58 -57 -68 -65 -105 -85 -143 -80 -357 -85 -500 -13 -59
30 -142 104 -180 159 -29 43 -65 129 -77 182 -12 53 -14 166 -4 219 33 180
192 329 404 379 54 12 192 0 257 -23z"/>
<path d="M17638 19166 c-1 -2 -48 -6 -103 -10 -55 -3 -109 -8 -120 -10 -11 -2
-45 -7 -75 -11 -30 -3 -116 -22 -190 -40 -652 -160 -1136 -629 -1280 -1240
-40 -169 -48 -243 -48 -470 0 -193 -1 -202 -26 -265 -15 -36 -43 -84 -64 -106
-150 -166 -189 -209 -258 -289 -226 -260 -587 -614 -859 -841 -38 -32 -72 -61
-75 -64 -16 -17 -226 -182 -345 -272 -217 -162 -469 -335 -750 -513 -114 -73
-412 -246 -610 -355 -277 -152 -711 -360 -965 -462 -601 -241 -1390 -431
-2050 -493 -30 -3 -75 -7 -100 -10 -25 -2 -74 -7 -110 -10 -216 -18 -302 -46
-436 -141 -99 -70 -181 -175 -227 -291 -47 -119 -53 -264 -17 -385 71 -235
276 -399 558 -444 70 -12 321 -5 397 10 18 3 81 13 140 20 11 2 38 6 60 9 22
4 58 9 80 12 23 3 51 7 64 10 13 2 49 7 80 11 31 3 58 8 61 9 3 2 26 6 50 10
38 5 191 31 293 50 15 3 37 7 50 9 139 25 484 98 518 110 8 3 25 7 39 10 24 4
134 33 292 75 153 42 601 193 683 231 11 5 70 29 130 53 410 166 930 431 1360
695 182 112 421 265 441 283 11 11 23 19 26 19 4 0 62 38 130 85 68 46 131 90
142 97 59 40 356 263 441 332 229 185 454 381 680 595 121 114 633 630 774
779 69 73 130 132 137 132 6 0 72 -31 145 -69 248 -129 454 -195 704 -226 87
-11 315 -6 390 9 46 9 77 15 110 22 163 33 415 153 575 273 397 297 675 742
737 1181 10 70 10 348 0 421 -27 201 -93 403 -193 597 -197 381 -498 636 -915
776 -120 40 -282 75 -379 82 -36 3 -70 7 -77 9 -6 2 -13 2 -15 1z m-17 -1181
c121 -32 212 -88 286 -180 206 -253 131 -648 -149 -783 -72 -35 -164 -52 -263
-47 -240 11 -424 149 -480 361 -18 69 -22 197 -6 237 6 15 8 27 6 27 -20 0 92
189 140 235 137 134 311 190 466 150z"/>
<path d="M3057 18034 c-1 -1 -29 -4 -62 -8 -289 -29 -524 -231 -611 -523 -19
-61 -26 -259 -11 -318 4 -16 9 -40 11 -52 8 -39 53 -143 87 -200 19 -31 68
-90 110 -132 186 -186 458 -252 702 -170 251 83 450 289 512 529 22 83 22 226
1 310 -9 36 -37 107 -62 158 -96 197 -307 357 -515 392 -61 10 -157 18 -162
14z"/>
<path d="M22137 17658 c-82 -10 -195 -46 -264 -85 -153 -85 -273 -227 -328
-388 -40 -120 -53 -306 -30 -419 52 -250 219 -445 453 -530 116 -42 283 -60
372 -42 224 47 379 140 512 306 290 363 149 903 -288 1101 -121 55 -276 76
-427 57z"/>
<path d="M20165 17249 c-128 -18 -245 -72 -337 -158 -213 -197 -274 -508 -146
-749 37 -69 39 -72 130 -164 120 -120 265 -182 428 -181 41 1 104 8 139 18 68
17 182 71 217 101 12 11 38 32 58 48 69 55 168 210 189 297 36 148 22 305 -37
436 -50 107 -167 232 -265 282 -52 27 -159 62 -201 67 -93 9 -129 10 -175 3z"/>
<path d="M24123 17154 c-152 -32 -302 -145 -390 -292 -62 -104 -85 -186 -89
-317 -3 -124 9 -181 58 -284 39 -80 148 -192 228 -235 114 -61 268 -85 405
-62 189 31 395 188 469 359 21 47 29 71 42 132 6 26 5 133 -1 168 -43 228
-268 469 -493 527 -65 17 -161 18 -229 4z"/>
<path d="M26108 16945 c-2 -2 -19 -5 -38 -8 -174 -23 -346 -139 -456 -304
-245 -369 -49 -883 375 -983 219 -52 451 25 618 204 171 182 230 406 162 615
-69 213 -282 416 -484 461 -46 10 -171 21 -177 15z"/>
<path d="M2609 16046 c-2 -2 -25 -6 -50 -9 -130 -16 -286 -118 -374 -247 -80
-117 -113 -226 -113 -366 0 -142 38 -252 128 -374 67 -89 111 -130 372 -343
610 -499 1087 -836 1533 -1084 434 -242 1514 -712 1809 -787 76 -19 203 -14
278 12 249 88 402 343 413 689 3 122 -33 206 -131 300 -106 101 -180 141 -584
313 -156 67 -326 141 -378 166 -52 24 -96 44 -98 44 -11 0 -431 211 -554 277
-404 221 -561 328 -1149 788 -267 209 -581 448 -646 491 -119 80 -243 123
-366 130 -47 2 -88 2 -90 0z"/>
<path d="M21708 15515 c-2 -2 -73 -6 -158 -10 -171 -8 -200 -10 -310 -19 -170
-15 -242 -22 -320 -31 -19 -3 -61 -7 -93 -10 -32 -4 -66 -8 -75 -10 -9 -1 -42
-6 -72 -10 -30 -3 -66 -8 -80 -10 -14 -2 -45 -7 -70 -10 -25 -3 -56 -8 -70
-10 -14 -2 -45 -6 -70 -10 -25 -3 -56 -8 -70 -10 -14 -3 -40 -7 -57 -10 -18
-3 -48 -7 -65 -10 -18 -3 -46 -8 -63 -11 -16 -3 -93 -16 -170 -29 -77 -14
-156 -28 -175 -31 -52 -9 -61 -11 -230 -45 -85 -17 -168 -33 -185 -35 -16 -3
-55 -11 -85 -19 -30 -7 -73 -16 -95 -21 -22 -4 -44 -9 -50 -10 -5 -2 -23 -6
-40 -9 -16 -3 -95 -22 -175 -41 -80 -20 -153 -37 -163 -39 -9 -2 -45 -11 -80
-20 -34 -9 -70 -18 -81 -20 -10 -3 -44 -12 -75 -21 -31 -9 -65 -18 -77 -20
-90 -16 -859 -261 -941 -299 -17 -8 -34 -15 -38 -15 -13 0 -326 -126 -495
-200 -216 -94 -778 -373 -1085 -539 -38 -21 -124 -67 -190 -101 -103 -54 -206
-109 -565 -302 -36 -20 -85 -47 -110 -60 -25 -14 -81 -44 -125 -68 -44 -24
-105 -56 -135 -73 -156 -86 -248 -137 -285 -157 -16 -9 -70 -38 -120 -65 -49
-26 -94 -51 -100 -55 -10 -7 -76 -43 -220 -120 -44 -24 -84 -46 -90 -50 -5 -4
-84 -48 -175 -97 -286 -156 -304 -165 -350 -191 -25 -14 -70 -38 -100 -55 -30
-16 -73 -40 -95 -52 -180 -101 -768 -395 -790 -395 -3 0 -43 -18 -90 -40 -47
-22 -91 -40 -98 -40 -7 0 -17 -4 -23 -9 -9 -9 -242 -103 -379 -153 -491 -181
-941 -313 -1435 -422 -113 -25 -221 -48 -240 -51 -19 -3 -66 -12 -105 -20 -61
-12 -115 -22 -240 -42 -383 -60 -359 -63 -404 47 -66 158 -178 342 -280 459
-146 169 -292 282 -486 379 -159 80 -348 136 -532 160 -74 9 -390 9 -468 0
-366 -44 -684 -197 -924 -447 -133 -139 -225 -275 -329 -489 -63 -131 -65
-134 -93 -128 -32 6 -46 10 -69 19 -8 4 -100 36 -205 73 -104 36 -242 84 -305
106 -63 22 -173 60 -245 85 -71 25 -146 51 -165 58 -19 8 -123 46 -230 86
-485 178 -847 339 -1188 528 -48 26 -123 67 -167 91 -76 42 -102 56 -180 100
-19 10 -65 36 -102 56 -37 20 -93 51 -123 67 -185 102 -249 122 -380 121 -150
-2 -280 -59 -409 -180 -139 -130 -212 -330 -180 -498 31 -166 210 -397 424
-548 180 -127 591 -361 945 -537 226 -113 313 -154 468 -222 23 -11 61 -27 85
-38 23 -10 83 -35 132 -55 50 -20 99 -41 110 -46 96 -46 610 -233 850 -309 55
-18 108 -36 117 -42 10 -5 23 -9 30 -9 6 0 55 -13 107 -30 137 -42 327 -97
486 -141 179 -48 241 -96 359 -278 181 -278 368 -448 641 -582 166 -81 345
-137 500 -154 33 -4 69 -9 80 -11 33 -7 276 -6 340 1 450 47 863 258 1121 570
49 59 146 203 173 257 39 77 148 149 246 163 22 3 65 10 95 15 30 5 141 24
245 41 105 17 208 34 230 39 52 11 92 19 135 26 19 3 43 7 52 10 19 5 49 12
93 19 73 13 531 120 685 160 282 74 394 107 695 205 412 134 909 325 1220 469
44 21 114 53 155 71 296 134 775 393 1435 780 50 29 108 62 130 74 22 12 119
67 215 123 487 279 961 537 1480 804 89 45 415 202 540 259 63 29 143 65 178
81 34 16 65 29 67 29 2 0 33 13 68 29 321 147 1073 424 1362 501 17 5 109 31
205 59 96 28 184 53 195 56 11 2 81 20 155 40 154 42 457 114 606 145 55 11
111 23 125 26 13 2 49 9 79 15 30 6 87 16 125 24 39 7 90 16 115 20 25 3 52 8
60 10 8 2 34 7 57 10 76 11 98 14 118 18 11 3 47 8 80 12 32 4 67 8 75 10 9 2
43 6 76 9 32 4 66 8 74 11 8 2 47 6 85 10 39 3 84 8 100 10 54 7 139 15 215
20 41 3 102 8 135 10 311 25 1017 25 1290 0 22 -2 79 -6 127 -10 48 -3 102 -7
120 -9 18 -3 65 -7 103 -11 39 -3 81 -8 95 -10 14 -2 52 -6 85 -10 84 -8 136
-15 167 -21 15 -3 47 -7 71 -9 143 -12 652 -108 1007 -190 8 -2 53 -13 100
-25 47 -12 90 -23 95 -24 183 -44 779 -230 960 -301 39 -15 75 -28 80 -29 6
-2 19 -7 30 -11 11 -5 70 -27 130 -50 61 -23 187 -75 280 -115 284 -121 598
-231 660 -231 311 0 557 174 630 447 58 214 -4 454 -158 608 -60 60 -93 82
-192 132 -274 138 -885 378 -1360 535 -121 40 -229 76 -240 80 -107 39 -754
213 -865 233 -14 2 -52 11 -85 19 -60 15 -290 61 -460 93 -49 9 -97 17 -105
19 -8 2 -51 8 -95 14 -44 7 -102 16 -130 21 -45 8 -81 13 -185 26 -19 2 -51 6
-70 9 -19 2 -54 7 -77 10 -24 3 -60 7 -80 10 -21 2 -65 7 -98 10 -33 3 -76 8
-95 10 -19 3 -71 7 -115 10 -44 3 -100 7 -125 10 -25 2 -94 7 -155 10 -60 3
-144 8 -185 11 -77 6 -787 13 -792 9z m-13693 -4305 c171 -45 310 -172 365
-335 65 -192 30 -401 -89 -537 -162 -184 -480 -216 -693 -71 -209 142 -269
401 -151 642 71 145 228 271 378 304 39 9 151 7 190 -3z"/>
<path d="M21847 13293 c-1 -1 -74 -4 -162 -7 -88 -4 -180 -8 -205 -11 -25 -2
-88 -7 -140 -10 -52 -3 -111 -8 -130 -10 -19 -2 -66 -7 -105 -10 -38 -3 -81
-8 -95 -10 -14 -3 -50 -7 -80 -9 -30 -3 -75 -8 -100 -11 -85 -10 -205 -26
-229 -30 -13 -2 -45 -7 -70 -11 -25 -4 -53 -8 -61 -9 -8 -2 -51 -8 -95 -15
-44 -7 -89 -14 -100 -16 -11 -3 -36 -7 -55 -10 -19 -3 -118 -21 -220 -40 -102
-20 -196 -38 -210 -40 -14 -3 -33 -7 -42 -10 -10 -3 -30 -7 -44 -10 -14 -3
-56 -12 -93 -20 -36 -9 -77 -18 -91 -21 -14 -2 -97 -22 -185 -44 -88 -22 -168
-41 -177 -44 -131 -31 -552 -154 -745 -217 -87 -28 -162 -53 -168 -54 -18 -3
-320 -112 -483 -174 -297 -111 -744 -300 -1057 -445 -124 -58 -629 -308 -740
-368 -252 -134 -304 -162 -365 -197 -36 -20 -87 -50 -115 -65 -107 -59 -426
-244 -805 -468 -74 -44 -211 -125 -305 -180 -215 -127 -716 -417 -720 -417 -2
0 -50 -26 -107 -58 -445 -252 -954 -490 -1428 -669 -238 -90 -283 -107 -295
-109 -5 -2 -76 -25 -157 -53 -335 -115 -805 -248 -1168 -330 -52 -12 -111 -26
-130 -31 -19 -5 -48 -11 -65 -14 -16 -3 -84 -17 -150 -31 -65 -14 -133 -28
-150 -30 -16 -3 -41 -8 -55 -10 -14 -3 -36 -8 -50 -10 -50 -10 -496 -84 -540
-90 -25 -3 -72 -10 -105 -15 -33 -5 -107 -14 -165 -20 -58 -6 -116 -13 -130
-15 -14 -2 -63 -7 -110 -10 -47 -4 -98 -8 -113 -10 -210 -26 -1090 -26 -1247
0 -14 2 -59 7 -100 10 -41 3 -91 8 -110 10 -19 3 -55 7 -80 10 -25 3 -56 7
-70 10 -14 3 -45 7 -69 10 -52 6 -68 9 -246 40 -304 54 -659 147 -945 246 -63
22 -142 50 -175 61 -113 39 -697 276 -920 373 -16 7 -75 32 -130 55 -55 23
-118 50 -140 60 -214 95 -315 125 -440 128 -153 5 -298 -45 -409 -140 -97 -83
-181 -248 -201 -393 -10 -73 -7 -201 6 -249 37 -140 124 -267 244 -354 70 -52
94 -65 230 -128 195 -89 239 -108 241 -102 0 2 7 -2 15 -9 16 -13 398 -174
599 -252 74 -29 144 -57 155 -61 180 -73 784 -271 950 -313 11 -2 72 -18 135
-35 118 -32 392 -96 445 -105 17 -3 50 -10 75 -15 25 -6 62 -13 82 -16 21 -3
57 -10 80 -15 24 -5 68 -13 98 -16 30 -4 57 -8 60 -10 5 -3 53 -10 140 -20 25
-3 56 -7 69 -10 13 -2 56 -7 95 -11 39 -3 75 -9 80 -12 5 -2 -31 -25 -80 -51
-448 -232 -741 -594 -858 -1056 -23 -91 -33 -146 -51 -274 -15 -103 -5 -337
20 -461 31 -158 44 -210 80 -315 90 -260 241 -479 475 -685 120 -105 365 -242
535 -298 383 -128 805 -112 1150 43 17 7 47 20 68 29 123 50 323 192 453 321
123 122 266 310 306 403 7 15 22 43 33 62 12 19 27 51 35 70 24 63 64 119 95
132 23 10 190 12 740 10 391 -1 724 -5 740 -8 77 -12 139 -38 222 -93 276
-182 546 -250 863 -219 369 37 739 286 918 620 45 83 90 219 106 317 19 114
14 350 -9 455 -77 355 -309 646 -635 799 -84 39 -204 78 -295 97 -69 15 -252
18 -340 7 -200 -25 -418 -132 -592 -290 -79 -72 -188 -221 -244 -334 -17 -35
-45 -74 -61 -88 -30 -25 -41 -27 -148 -26 -352 2 -944 2 -1091 1 -191 -2 -208
0 -260 42 -14 12 -92 110 -144 182 -189 261 -356 425 -553 539 -35 20 -67 37
-71 37 -5 0 -13 6 -19 13 -8 9 -3 12 21 13 55 1 251 15 267 19 8 2 56 7 105
11 133 10 146 11 190 17 22 4 69 9 105 12 36 3 76 8 90 10 14 3 48 7 75 10 28
3 59 7 70 9 11 2 47 7 80 10 33 4 101 14 150 21 50 8 110 17 134 20 23 3 46 7
50 9 3 2 29 6 56 10 41 4 196 32 345 61 14 3 41 8 60 11 46 7 248 50 325 69
33 8 71 17 85 19 29 6 148 34 170 40 8 3 42 11 75 19 85 21 248 65 328 89 37
11 73 21 80 22 45 8 444 138 655 212 252 90 608 235 857 349 44 20 100 46 125
57 69 31 588 292 650 326 30 17 69 37 86 45 17 8 102 54 190 102 87 48 184
101 214 117 80 44 331 186 680 387 168 96 320 183 338 192 18 10 38 22 45 27
7 5 32 21 57 34 79 45 474 268 490 278 8 5 58 33 110 61 52 29 111 61 130 72
276 159 810 428 1155 584 55 25 127 58 160 73 33 15 137 60 230 99 94 39 179
76 190 81 176 84 1079 401 1320 463 11 3 85 24 165 47 148 42 530 137 625 154
11 2 65 13 120 24 119 25 268 52 310 58 31 4 96 14 130 20 21 4 81 13 130 19
17 2 64 9 105 14 112 15 149 20 210 26 30 3 75 7 100 10 102 11 149 15 230 20
47 3 108 8 135 10 123 10 400 18 625 18 229 0 586 -10 627 -17 10 -2 63 -7
118 -11 55 -3 113 -8 128 -10 15 -2 60 -6 100 -10 40 -3 83 -8 97 -10 14 -2
50 -6 80 -10 30 -3 66 -8 80 -10 14 -3 50 -7 80 -10 30 -3 62 -8 70 -10 8 -2
35 -7 60 -10 69 -9 164 -25 236 -39 12 -2 37 -7 55 -10 82 -14 249 -49 364
-76 44 -10 91 -21 105 -24 51 -9 310 -78 460 -122 335 -99 524 -168 1065 -392
317 -131 491 -197 545 -207 69 -13 216 -12 278 1 104 22 207 79 287 159 200
200 247 509 114 742 -93 162 -252 273 -564 393 -146 56 -255 99 -280 110 -27
12 -281 108 -500 190 -451 168 -943 313 -1430 423 -85 19 -415 83 -470 91 -22
4 -65 11 -95 16 -116 20 -364 54 -470 65 -25 3 -56 7 -70 9 -14 3 -63 8 -110
12 -47 3 -93 8 -102 10 -10 1 -62 6 -115 9 -54 4 -116 8 -138 10 -146 12 -819
27 -828 18z m-13798 -6803 c163 -31 295 -158 348 -334 21 -68 24 -210 6 -288
-51 -230 -221 -375 -450 -383 -298 -11 -533 214 -534 510 0 28 2 59 5 70 2 11
7 34 11 50 17 73 70 161 134 225 127 125 310 182 480 150z"/>
<path d="M21828 11085 c-5 -5 -228 -17 -373 -20 -130 -2 -176 -6 -375 -30 -30
-3 -66 -8 -80 -10 -14 -2 -45 -7 -70 -10 -25 -3 -70 -10 -100 -15 -30 -5 -73
-12 -95 -15 -22 -4 -47 -8 -55 -10 -8 -2 -31 -7 -50 -10 -73 -12 -289 -58
-405 -87 -66 -16 -129 -31 -140 -34 -11 -2 -29 -6 -40 -8 -256 -57 -989 -298
-1415 -466 -85 -34 -159 -62 -165 -64 -5 -2 -19 -7 -30 -11 -386 -153 -406
-163 -513 -267 -179 -175 -221 -451 -105 -698 66 -141 158 -234 289 -293 66
-29 196 -55 259 -51 145 8 198 21 460 114 110 40 263 94 340 121 77 28 156 56
175 64 19 8 82 30 140 50 58 20 114 41 125 45 11 5 49 18 85 30 36 13 115 39
175 60 191 65 508 161 579 174 12 2 82 18 156 35 74 17 151 33 170 36 19 3 42
8 50 10 8 2 31 7 50 10 19 3 46 7 60 10 50 9 258 38 360 50 288 33 428 40 820
39 315 0 556 -7 620 -19 14 -3 66 -7 115 -11 50 -3 104 -8 120 -10 17 -2 52
-6 78 -8 80 -9 291 -37 307 -41 8 -2 38 -7 65 -10 40 -5 194 -34 477 -90 37
-8 355 -87 383 -96 17 -5 80 -23 140 -40 273 -77 574 -180 846 -289 255 -103
320 -120 457 -120 202 0 369 93 484 269 70 108 93 189 93 331 0 119 -6 146
-53 255 -40 91 -95 162 -187 243 -101 88 -189 125 -749 308 -127 41 -238 78
-246 81 -195 64 -710 213 -860 248 -20 5 -179 44 -210 52 -31 8 -21 5 -165 36
-110 24 -263 53 -325 62 -14 2 -68 11 -120 19 -52 8 -120 17 -150 21 -30 3
-66 8 -80 10 -24 3 -102 12 -185 20 -22 2 -89 7 -150 10 -60 4 -121 9 -135 12
-27 5 -847 13 -852 8z"/>
<path d="M16117 9784 c-1 -1 -36 -4 -77 -8 -313 -26 -630 -201 -821 -456 -66
-88 -127 -224 -160 -361 -17 -68 -37 -140 -46 -159 -78 -179 -184 -300 -375
-428 -94 -63 -435 -272 -443 -272 -2 0 -27 -14 -55 -30 -29 -17 -136 -74 -238
-127 -202 -104 -226 -118 -287 -172 -161 -142 -242 -347 -213 -539 22 -147 96
-283 211 -388 156 -143 339 -190 524 -135 94 28 406 215 1073 644 146 94 279
180 295 192 64 46 75 46 156 8 194 -91 342 -123 541 -118 65 2 121 6 125 8 5
3 28 8 51 12 220 33 518 220 698 440 81 99 170 253 202 350 6 17 13 39 18 50
55 149 67 414 25 581 -52 209 -159 398 -311 552 -100 101 -194 169 -323 233
-54 26 -99 48 -100 48 -1 0 -9 2 -17 5 -35 12 -158 44 -190 50 -56 11 -255 26
-263 20z"/>
<path d="M22187 8804 c-1 -1 -69 -5 -152 -8 -82 -3 -179 -8 -214 -10 -158 -11
-239 -17 -271 -21 -19 -2 -73 -7 -120 -10 -47 -4 -98 -8 -115 -10 -87 -8 -164
-17 -200 -21 -22 -3 -56 -7 -75 -9 -19 -2 -53 -6 -75 -10 -22 -3 -58 -8 -80
-11 -22 -3 -51 -7 -65 -9 -156 -22 -532 -94 -626 -121 -28 -8 -60 -16 -70 -18
-181 -36 -905 -257 -1074 -328 -19 -8 -39 -15 -43 -16 -26 -2 -586 -224 -712
-282 -22 -10 -74 -33 -115 -50 -41 -18 -122 -54 -179 -81 -57 -27 -105 -49
-108 -49 -8 0 -629 -310 -753 -376 -69 -36 -190 -102 -270 -147 -80 -44 -167
-92 -195 -107 -74 -40 -126 -70 -265 -150 -69 -40 -139 -80 -156 -90 -36 -21
-645 -388 -679 -410 -13 -8 -59 -36 -102 -63 -43 -26 -126 -78 -186 -115 -59
-37 -183 -114 -275 -171 -92 -57 -197 -123 -234 -147 -37 -24 -70 -44 -73 -44
-2 0 -37 -21 -77 -47 -66 -42 -174 -107 -253 -153 -416 -240 -599 -338 -875
-468 -86 -40 -395 -172 -404 -172 -3 0 -17 -5 -33 -12 -15 -6 -32 -13 -38 -14
-5 -2 -102 -35 -215 -74 -273 -94 -716 -214 -940 -254 -14 -2 -52 -9 -85 -15
-33 -6 -71 -13 -85 -16 -36 -6 -278 -43 -320 -49 -97 -13 -202 -26 -260 -31
-36 -4 -78 -8 -95 -10 -16 -2 -75 -6 -130 -10 -55 -4 -116 -8 -135 -10 -77 -7
-401 -17 -670 -20 -157 -2 -295 -6 -307 -8 -12 -3 -50 -8 -85 -12 -348 -35
-610 -370 -556 -711 34 -220 176 -412 372 -504 70 -32 183 -58 241 -55 22 1
101 5 175 9 74 4 155 9 180 11 25 2 90 7 145 10 162 8 286 16 345 20 30 2 105
7 165 10 106 5 192 12 265 20 19 2 69 7 110 10 41 3 86 8 100 10 14 2 52 7 85
10 105 10 147 16 270 35 66 11 138 22 160 24 38 5 53 8 115 21 14 3 43 8 65
11 22 3 94 17 160 31 66 13 131 26 145 29 14 3 31 7 39 10 8 2 30 7 49 10 87
14 560 141 757 204 72 23 135 43 140 44 6 2 17 6 25 9 8 3 58 20 110 38 198
67 472 173 605 234 28 12 84 37 125 55 169 74 495 237 755 379 306 168 766
445 1135 685 103 67 200 130 320 206 86 55 421 266 437 275 10 6 113 67 228
136 727 436 1490 817 2165 1083 129 51 264 103 300 116 36 12 74 26 85 31 57
26 528 175 715 227 315 87 431 114 685 157 83 14 161 28 175 30 30 6 157 22
225 30 28 3 66 8 85 10 192 23 482 38 720 39 161 0 501 -11 560 -18 14 -2 63
-7 110 -11 47 -3 99 -8 115 -10 17 -2 57 -7 90 -11 33 -3 67 -8 75 -9 8 -2 38
-6 65 -9 322 -43 681 -122 1140 -253 294 -84 320 -87 449 -58 207 46 386 198
464 395 58 144 50 314 -22 465 -102 217 -327 367 -674 450 -9 3 -62 16 -117
30 -55 14 -111 28 -125 31 -14 3 -33 7 -42 10 -9 3 -25 7 -35 9 -10 2 -77 17
-149 34 -213 49 -532 111 -649 127 -27 3 -57 7 -65 9 -15 3 -80 13 -130 20
-14 2 -51 7 -83 10 -32 4 -66 8 -76 10 -9 2 -57 6 -107 10 -49 4 -102 9 -119
11 -82 10 -599 26 -608 18z"/>
<path d="M22730 6874 c-176 -27 -319 -102 -441 -230 -207 -218 -250 -575 -103
-843 61 -110 142 -200 244 -267 132 -87 244 -118 415 -118 340 2 629 230 714
564 25 102 22 297 -7 390 -52 170 -115 261 -259 380 -7 5 -40 25 -75 44 -107
58 -191 78 -373 89 -22 2 -74 -2 -115 -9z"/>
<path d="M20449 6796 c-2 -2 -26 -7 -54 -10 -340 -45 -679 -300 -857 -646 -46
-90 -73 -134 -98 -162 -9 -9 -85 -46 -170 -82 -209 -87 -469 -201 -614 -270
-65 -31 -120 -56 -122 -56 -17 0 -715 -355 -909 -462 -49 -28 -112 -63 -140
-78 -117 -64 -158 -88 -305 -173 -300 -175 -550 -332 -913 -570 -353 -233
-696 -441 -952 -577 -44 -23 -98 -53 -120 -65 -102 -58 -449 -227 -630 -307
-49 -22 -103 -46 -120 -53 -242 -110 -725 -289 -1015 -376 -177 -53 -351 -103
-402 -114 -47 -10 -129 -40 -255 -92 l-133 -56 22 -36 c142 -238 258 -342 461
-412 124 -43 205 -59 479 -94 47 -6 271 -18 348 -18 74 0 315 12 351 18 13 2
51 6 84 10 62 6 111 13 155 21 14 2 54 9 90 15 294 50 659 162 984 301 200 85
371 170 631 312 157 87 509 304 800 494 1047 686 1545 973 2280 1312 235 108
346 148 405 144 69 -4 87 -10 153 -52 145 -91 298 -151 452 -176 85 -13 308
-14 365 -1 14 3 39 8 55 10 138 25 332 107 461 196 90 63 217 187 278 272 194
273 262 665 170 986 -31 107 -118 287 -179 366 -109 144 -254 266 -411 347
-130 67 -207 95 -349 124 -35 7 -270 16 -276 10z"/>
</g>
</svg>
