<?xml version="1.0" encoding="utf-8"?>
<!-- Generator: Adobe Illustrator 26.3.1, SVG Export Plug-In . SVG Version: 6.00 Build 0)  -->
<svg version="1.1" id="Layer_1" xmlns="http://www.w3.org/2000/svg" xmlns:xlink="http://www.w3.org/1999/xlink" x="0px" y="0px"
	 viewBox="0 0 1095.7 309.6" style="enable-background:new 0 0 1095.7 309.6;" xml:space="preserve">
<style type="text/css">
	.st0{fill:#FFFFFF;}
	.st1{enable-background:new    ;}
</style>
<path class="st0" d="M310.1,154c-0.1,27-7.1,52.2-19.9,75.8c-8.6,15.7-20,29.1-33.4,41c-9.5,8.4-20,15.5-31.4,21.1
	c-11.8,5.9-23.9,10.8-36.9,13.5c-12.2,2.5-24.5,4.5-36.9,4c-7-0.4-13.9-1.1-20.8-2.3c-6.6-1.1-13.1-2.2-19.4-4.4
	c-8.7-3-17.1-6.8-25.4-10.7c-8.2-3.8-15.9-8.5-23.1-13.9c-9.8-7.2-18.7-15.6-26.5-24.9c-8.9-10.5-16.3-22.1-22-34.6
	c-7-15.2-11.5-31.5-13.3-48.1c-2.4-21.2-0.3-42.6,6.2-62.9c6.1-19.2,16-37.1,29-52.5C49,39.9,64.6,27.3,82.3,18.1
	C96.1,10.7,111,5.5,126.4,2.7c7.6-1.4,15.2-2.2,22.9-2.5c13.5-0.7,26.7,1.1,39.9,3.9c20,4.2,38.1,12.7,54.9,24.2
	C265,42.6,282,62,293.4,84.6c8.1,15.6,13.3,32.6,15.4,50C309.5,141,309.7,147.5,310.1,154z M155.2,11.5c-8.8-0.4-17.7,0.2-26.3,1.9
	C114.4,16.1,100.4,21,87.4,28c-18,9.8-33.6,22.3-46.2,38.6c-8.5,11-15.4,23-20.6,35.9c-4.2,10.6-7,21.7-8.4,33
	c-1.7,13.4-2,26.8,0.1,40.1c3.3,21.1,11.3,41.1,23.4,58.7c6.5,9.3,14,17.9,22.3,25.7c10.4,9.9,22.4,17.5,35.1,23.9
	c11.2,5.5,23,9.5,35.2,12c14.1,3,28.7,3.5,43,1.5c16.1-2.1,31.7-6.9,46.3-14.2c14.5-7.3,27.8-16.8,39.4-28.2
	c7.9-7.7,14.7-16.4,20.4-25.8c8.2-13.5,14.3-28.3,17.9-43.7c3-12.8,4-25.9,3.1-38.9c-0.6-10.8-2.4-21.6-5.3-32.1
	c-3.9-13.3-9.6-25.9-17.2-37.5c-7.3-11.6-16.3-21.9-26.7-30.7C232.2,32,213,21.2,190.9,15.9C179.1,13,167.3,10.8,155.2,11.5z"/>
<path class="st0" d="M40.2,96.7c1.3,3.4,2.3,6.6,3.7,9.7c5.9,13.4,15.6,22.6,29.7,26.8c1,0.3,2.2,1,2.3-0.9
	c0.2-8.2,0.4-16.4-2.9-24.3c-3.6-8.2-9.4-15.3-16.9-20.4c-2.7-1.8-5.5-3.4-8.2-5.1c-2.5-1.7-3.3-4-2.2-6.5c1-2.4,3.8-3.5,6.2-2.5
	c0,0,0,0,0,0l0,0c2.1,0.9,2.9,0.1,4-1.6c10.1-16.5,24.7-29.7,42.1-38.2c12.7-6.2,26.1-9.5,40.1-10.8c6.3-0.7,12.7-0.9,19-0.8
	c5.8,0.2,11.6,1.4,17.4,2.1c0.6,0.1,1.2,0.3,1.8,0.6c2.3,1.1,3.8,3.5,3.4,5.7c-0.5,2.6-2.9,4.3-5.5,4.2c-3.2-0.2-6.4-1-9.6-1.1
	c-7.6-0.2-15.1-0.4-22.6-0.3c-11.1,0.2-21.8,3-32.1,6.8c-11.5,4.2-22,10.8-30.8,19.4c-5.9,5.6-10.9,12-14.9,19c-0.8,1.3-0.7,2,0.6,3
	c4.5,3.4,8.5,7.5,11.7,12.2c0.2,0.3,0.4,0.5,0.6,0.7c2.1-3.9,3.8-7.9,6.2-11.5c9.1-13.8,21.6-23.3,37-28.9
	c11.3-4.2,23.2-6.4,35.2-6.6c2.6,0,5.1-0.2,7.7-0.3c1.5-0.1,2.3,0.4,2.2,2c-0.2,14,0.4,28.1-0.6,42c-1.4,18.4-8.2,34.9-22.2,47.6
	c-9.3,8.7-21.1,14.3-33.7,16.1c-6.6,0.9-13.2,0.7-19.9,0.9c-3.3,0.1-3.4,0-3.4,3.4c0,2.9,0,5.7,0,8.6c0,3.4-2.2,5.7-5.1,5.7
	s-4.8-2.2-4.8-5.6c0-6.9-0.1-13.7,0-20.6c0-1.7-0.5-2.6-2.2-3c-20.2-5.2-36.1-20.6-41.9-40.7c-0.5-1.6,0-2.5,1.5-3.1
	C35.7,99.2,37.9,97.9,40.2,96.7z M155.2,69.8c-1.3,1.1-2.1,1.6-2.8,2.3c-10.6,10.3-21.1,20.5-31.6,30.8c-10,9.9-19.9,20-30,29.7
	c-3,2.9-5.7,5.4-5,10.1c0.3,1.8,0.6,2.6,2.5,2.5c4.3-0.1,8.6,0,12.9-0.1c7.5-0.1,14.8-1.8,21.5-5.2c17.3-8.5,26.9-22.9,31.3-41.3
	c1.8-7.8,1.3-15.6,1.4-23.5C155.4,73.7,155.4,72,155.2,69.8L155.2,69.8z M151.9,58.8l-0.2-0.6c-3.2,0.3-6.5,0.5-9.6,1
	c-9.7,1.1-19.2,4.1-27.8,8.8c-1.7,0.7-2.8,2.5-2.7,4.4c0.1,7.8,0,15.6,0,23.4c0,0.7,0.1,1.3,0.2,2.5L151.9,58.8z M100.7,78.1
	c-13,12.8-18,27.6-13.8,45.6c0.6-0.5,0.8-1.4,1.4-2c3.8-4,7.7-7.8,11.4-11.8c0.8-0.8,1.3-1.9,1.4-3c0-9-0.1-18-0.2-27
	C100.9,79.4,100.8,78.9,100.7,78.1z"/>
<path class="st0" d="M282.5,169.9c-1.2-0.4-3.2-1.1-5.1-1.9c-12.9-5.7-26.8-8.9-40.9-9.5c-14-0.6-27.5,1.8-40.9,5.9
	c-17.5,5.3-33,14.7-48.6,23.7c-13.9,7.9-29.1,13.1-44.9,15.4c-2.3,0.4-4.2,0.4-5.5,3c-5.3,9.8-21.6,11.2-28,0.2
	c-0.9-1.6-2.4-2.8-4.2-3.2c-12.2-3.1-23.9-8-34.6-14.6c-1.6-1-3-2.4-4-4c-1-1.9-0.6-4.3,1.1-5.6c1.6-1.4,3.5-1.9,5.6-0.8
	c4.7,2.5,9.2,5.3,14.1,7.3c6,2.6,12.3,4.6,18.5,6.8c1.4,0.5,2.1,0.1,2.7-1.3c2.7-6.4,7.6-9.9,14.6-10c6.7-0.3,12.9,3.7,15.3,10
	c0.5,1.3,1.1,1.9,2.7,1.7c13.6-1.8,26.8-6.1,38.8-12.6c11.9-6.5,23.6-13.1,35.7-19.2c10.3-5.2,21.4-8.3,32.7-10.5
	c7.9-1.6,15.9-2.6,24-2.7c16.6,0,33.1,3.3,48.3,9.7c1.9,0.7,3.9,1.5,5.7,2.5c2.1,1.2,3.1,3.6,2.6,5.9
	C287.5,168.3,285.6,169.9,282.5,169.9z M89.3,197.8c0.1-3.8-2.9-6.9-6.7-6.9c-3.9,0.2-6.9,3.4-6.9,7.3c0.1,3.6,3.1,6.5,6.7,6.4
	c0.1,0,0.1,0,0.2,0c3.6,0.1,6.6-2.7,6.7-6.3C89.3,198.1,89.3,197.9,89.3,197.8z"/>
<path class="st0" d="M36.6,214.2c-0.1-4.7,3.6-6.9,7.6-5.3c5.5,2.3,11,4.8,16.7,6.7c12.8,4.3,25.8,4.6,39.1,2.5
	c14.5-2.3,28.4-6.5,41.4-13.5c7.6-4.1,14.9-8.7,22.4-13c13.9-7.8,28.5-13.9,44.1-17.3c9.1-2,18.3-3,27.6-2.9
	c10.5,0.3,20.9,2.1,30.9,5.4c4.3,1.4,8.6,3.1,12.8,4.8c0.9,0.3,1.9,0.8,2.7,1.2c2.9,1.6,3.8,4.3,2.5,7.1c-1.2,2.6-3.9,3.6-6.9,2.5
	c-4.3-1.6-8.5-3.6-13-5.1c-8.9-2.9-18.1-4.6-27.5-5c-12-0.4-24,1.2-35.4,4.6c-11.7,3.6-23,8.4-33.6,14.5
	c-10.2,5.7-20.2,11.9-30.8,16.9c-15.8,7.4-32.7,10.8-50.2,11.7c-16.8,0.8-32.1-4.3-47-11.2C38.1,218.1,36.8,216.3,36.6,214.2z"/>
<path class="st0" d="M222.4,76.8c-5.9,3.1-11.7,6.2-17.5,9.2c-1.2,0.7-2.4,1.2-3.7,1.7c-2.3,0.8-4,1.9-5,4.4c-1.7,4.1-9.6,7-14,5.2
	c-5-1.9-7.9-7.1-6.9-12.4c1.1-5.5,5.8-9.7,11.2-9.1c2.5,0.3,4.8,2,7.2,2.9c0.7,0.3,1.7,0.7,2.3,0.3c6.2-3.1,12.4-6.3,19.3-9.8
	c-2.3-1.6-3.9-2.8-5.7-3.8c-4.4-2.3-8.9-4.5-13.4-6.7c-0.8-0.2-1.7-0.1-2.5,0.3c-3.9,1.9-7.7,3.1-11.9,1.1
	c-5.6-2.6-7.9-9.3-5.3-14.8c0-0.1,0.1-0.2,0.1-0.3c2.5-5.3,9.8-7.7,14.6-5.1c3.3,1.8,5.7,3.9,6.6,7.6c0.3,0.6,0.7,1,1.2,1.3
	c6.3,3.4,12.6,6.8,18.8,10.1c0.3,0.1,0.6,0.2,0.8,0.3c3.1-5.9,7.6-10,14.6-10.6c4.5-0.3,8.9,1.2,12.2,4.3c6.3,5.5,7.2,15.6,1.9,22.5
	C241.4,83.5,232.3,84,222.4,76.8z M241.5,65.4c0.1-3.8-2.9-6.9-6.6-7c-0.1,0-0.1,0-0.2,0c-3.7,0.1-6.7,3.1-6.8,6.9
	c-0.1,3.8,3,6.9,6.8,7c0,0,0.1,0,0.1,0c3.7,0,6.7-2.9,6.8-6.6C241.5,65.6,241.5,65.5,241.5,65.4z"/>
<path class="st0" d="M259.5,234.1c-2.1-0.6-4.8-1.4-7.6-2.1c-13.3-3.2-27.2-2.8-40.3,1.1c-15.2,4.5-28.8,11.9-42,20.5
	c-8.6,5.6-17.4,11-27.1,14.6c-9.4,3.5-19.2,5.6-29.2,6.2l-10.9,0.7c-2.8-0.1-5-2.1-5.4-4.9c-0.4-2.8,1.5-5.3,4.2-5.9
	c1.4-0.2,2.8-0.3,4.2-0.3c14.4,0.1,28.2-2.5,40.9-9.3c6.7-3.6,13.1-7.8,19.6-11.8c15-9.2,30.5-17.4,47.9-21.5
	c6.1-1.3,12.2-2.1,18.4-2.3c9-0.5,17.6,1.2,26.2,3.4c2.4,0.6,4.8,1.5,6.1,3.9C266.3,229.9,263.9,234,259.5,234.1z"/>
<path class="st0" d="M186.5,109.2c5.3,0.7,10.8,3.2,13.5,9.6c2.6,5.7,1.7,12.4-2.5,17.1c-6,7.3-14.2,8.3-22.3,3.3
	c-0.6-0.2-1.3-0.1-1.9,0.3c-6.6,7-13.4,13.9-21.4,19.4c-8.8,6.1-18.1,11.4-28.4,14.7c-6.8,2-13.7,3.4-20.7,4.2
	c-0.9,0.1-1.7,0.1-2.6,0.1c-3.1-0.1-5.7-2.3-5.8-5c0-3.1,2.4-5.6,5.5-5.8c10.5-0.7,20.8-3.3,30.3-7.9c13.2-6.5,25.2-14.7,34.8-26
	c0.4-0.5,1-1.1,1.5-1.6c1.1-1.1,1.6-2.7,1.4-4.2C167.3,117.1,175,109.2,186.5,109.2z M184.7,132.4c3.9,0,6.6-2.7,6.7-6.8
	c0-3.7-3.1-6.8-6.8-6.8c-3.6,0.2-6.5,3.1-6.8,6.8C177.6,129.5,180.6,132.4,184.7,132.4z"/>
<path class="st0" d="M281.5,109c0,7.4-5.2,14.3-12,15.9c-8.1,2-15.4-1.3-19.1-8.6c-0.5-1.4-1.9-2.2-3.3-2.1c-7.5,0-15,0-22.5,0
	c-0.8,0.1-1.6,0.4-2.2,1c-6.3,4.6-14.4,2.8-17.2-3.8c-2.4-5.5-0.1-11.8,5.3-14.4c5.3-2.7,11.3-0.8,14.2,4.8c0.6,1.5,2.2,2.4,3.8,2.2
	c5.8-0.1,11.7-0.2,17.6,0c2.4,0,3.7-0.6,4.8-2.8c2.8-5.8,7.7-8.7,14.1-8.8c9-0.1,16.4,7.2,16.5,16.2
	C281.5,108.8,281.5,108.9,281.5,109z M265.3,102.4c-3.7-0.2-6.8,2.6-7,6.3s2.6,6.8,6.3,7c0.2,0,0.3,0,0.5,0c3.5,0.2,6.5-2.5,6.7-6
	c0-0.2,0-0.5,0-0.7C271.8,105.3,268.9,102.4,265.3,102.4z"/>
<path class="st0" d="M66.4,247.2c0.3-6.6,3.5-11.8,9.7-14.7c5-2.6,11.1-2.1,15.7,1.2c2.2,1.5,3.8,3.9,5.3,6c0.6,1.1,1.8,1.7,3,1.6
	c4.5-0.1,9-0.1,13.5,0c1.2,0.1,2.4-0.6,2.8-1.7c2.5-5.1,7.7-7.4,12.6-5.7c5.3,1.7,8.5,7,7.5,12.5c-0.8,4.8-5.5,8.8-10.7,8.9
	c-2.7,0.1-5.4-0.7-7.6-2.4c-1-0.7-2.1-1-3.3-1.1c-4.7-0.1-9.4,0-14.2-0.1c-1.4-0.2-2.8,0.7-3.2,2.1c-4.6,10.4-16.9,13.5-25.5,6.4
	C68.2,257,66.5,252.5,66.4,247.2z M89.4,247.6c0-3.8-2.6-6.6-6.1-6.6c-3.8-0.2-7,2.8-7.2,6.6c0,0,0,0.1,0,0.1c0,3.7,2.9,6.7,6.6,6.8
	H83C86.7,254.4,89.3,251.6,89.4,247.6L89.4,247.6z"/>
<path class="st0" d="M134.8,283.8c0.6-0.3,1.2-0.5,1.9-0.8c12.6-3.3,24.6-8.7,35.3-16c10.4-7,21.6-12.9,33.2-17.6
	c0.8-0.5,1.5-1.2,1.8-2.1c2.5-5.4,8.1-8.1,13.2-6.1c5.7,1.9,8.8,8.1,7,13.8c-2,5.9-8.4,9-14.3,7c-0.8-0.3-1.7-0.7-2.4-1.2
	c-1.3-1-3.1-1.1-4.6-0.4c-8.2,3.6-16.2,7.9-23.6,12.9c-8,5.3-16,10.8-25.6,13.2c-5.3,1.4-10.9,1.7-16.3,0.8
	C138.4,286.8,136.2,286.2,134.8,283.8z"/>
<path class="st0" d="M226.9,195.1c8.4-0.7,16.9-0.2,25.1,1.6c6.9,1.6,13.6,3.7,20.3,6.1c3.9,1.3,5.4,5.4,3.5,8.2
	c-1.5,2.3-3.9,3-7,1.7c-7-2.9-14.3-5-21.8-6.2c-12-1.8-24-1.5-35.8,2.3c-5.1,1.6-10.1,3.6-15.1,5.3c-3.8,1.3-6.7-0.2-7.5-3.7
	c-0.6-2.6,0.8-5.2,3.3-6c10.9-4.4,22-8.4,33.9-9.3C226.2,195.2,226.5,195.2,226.9,195.1z"/>
<path class="st0" d="M170.2,208.7c4.7,0,9,2.9,10.7,7.3c1.6,4.2,0.4,8.8-3.3,12c-3.3,3.3-8.4,4-12.4,1.7c-1.1-0.6-1.8-0.2-2.7,0.4
	c-4.3,2.8-8.6,5.6-13,8.2c-1.8,1.1-4.1,0.8-5.5-0.8c-2.9-2.8-2-7,1.6-8.8c3.1-1.5,6-3.2,8.9-5c2.8-1.5,4.7-4.2,5.4-7.3
	C160.7,211.9,165.5,208.7,170.2,208.7z"/>
<path class="st0" d="M67.4,167.1c0.1,4.9-3,7.6-6.2,6.5c-4.9-1.8-9.7-3.8-14.4-6.1c-8.3-3.9-15.4-9.5-22.3-15.3
	c-2.4-2-3.1-4.5-2.1-6.8c0.9-2.2,3.2-3.5,5.5-3.1c1.1,0.3,2.1,0.7,3,1.4c3.5,2.6,7,5.4,10.5,8.1c6.6,5,14.1,8.3,21.7,11.5
	C65.5,164.3,67.4,165.6,67.4,167.1z"/>
<path class="st0" d="M234.8,138.1c-3.5,0.1-6.4-2.5-6.5-6c0-0.1,0-0.3,0-0.4c-0.1-3.5,2.6-6.5,6.1-6.6c0.2,0,0.3,0,0.5,0
	c3.6-0.1,6.6,2.8,6.7,6.4C241.7,134.8,238.4,138,234.8,138.1z"/>
<path class="st0" d="M234.6,246.1c-0.1-3.6,2.8-6.5,6.3-6.6c0.1,0,0.2,0,0.3,0c3.4-0.2,6.3,2.4,6.5,5.8c0,0.1,0,0.2,0,0.4
	c0.1,3.6-2.8,6.6-6.4,6.8C237.7,252.6,234.7,249.8,234.6,246.1C234.6,246.2,234.6,246.1,234.6,246.1L234.6,246.1z"/>
<path class="st0" d="M31.1,133.8c-3.4-0.1-6-2.9-6.1-6.3c0-3.5,2.7-6.3,6.2-6.3c0,0,0,0,0,0h0.3c3.5,0.1,6.2,2.9,6.3,6.4
	C37.5,131,34.6,133.7,31.1,133.8z"/>
<path class="st0" d="M276.2,144c-3,0-5.4-2.4-5.4-5.3c0,0,0-0.1,0-0.1c0-3.1,2.5-5.7,5.6-5.8c2.7,0,5.4,2.8,5.4,5.6
	C281.6,141.3,279.2,143.7,276.2,144z"/>
<path class="st0" d="M257,75.7c3,0,5.4,2.4,5.5,5.4c0,2.8-3,5.8-5.8,5.8c-2.9-0.3-5.2-2.7-5.4-5.7C251.4,78.1,253.9,75.7,257,75.7z"
	/>
<path class="st0" d="M213.4,35.8c3,0.1,5.4,2.6,5.4,5.6c0,0,0,0,0,0v0.1c-0.3,2.9-2.8,5.2-5.7,5.3c-2.9-0.2-5.2-2.5-5.4-5.4
	c0-3.1,2.4-5.6,5.5-5.6c0,0,0,0,0.1,0C213.3,35.8,213.3,35.8,213.4,35.8z"/>
<path class="st0" d="M213.6,129.4c2.9,0,5.3,2.4,5.3,5.3c0,0,0,0.1,0,0.1v0.2c-0.1,2.9-2.5,5.3-5.4,5.2s-5.3-2.5-5.2-5.4l0,0
	C208.3,131.8,210.6,129.5,213.6,129.4z"/>
<path class="st0" d="M255.8,140.6c-2.6,0.1-4.8-1.9-4.9-4.5c0,0,0,0,0,0v-0.3c0-2.8,2.4-5.4,5-5.4c2.6,0,5.2,2.8,5.3,5.3
	S258.6,140.6,255.8,140.6z"/>
<path class="st0" d="M237.1,89c2.2,0,4,1.7,4.1,3.9c0,0,0,0,0,0.1c-0.1,2.3-2.1,4-4.4,3.9c0,0-0.1,0-0.1,0c-2.2-0.2-3.7-2.2-3.5-4.3
	C233.3,90.4,235,88.8,237.1,89C237.1,88.9,237.1,88.9,237.1,89C237.1,88.9,237.1,89,237.1,89z"/>
<path class="st0" d="M192.3,34.2c-1.6,0.2-3-1-3.1-2.6c0-0.2,0-0.4,0-0.6c-0.1-1.4,1-2.6,2.4-2.7c0.1,0,0.2,0,0.3,0
	c2-0.1,3.8,1.3,3.7,3c0,1.6-1.3,2.9-2.8,2.9C192.6,34.2,192.5,34.2,192.3,34.2z"/>
<g class="st1">
	<path class="st0" d="M354.1,104.9h11.6l18.2,86.6h0.6l25.8-86.6h11.2l23.4,86.6h0.6l19.8-86.6h11.6l-24.8,99.6h-12.4l-23.6-86.2
		h-0.4l-26,86.2h-12.6L354.1,104.9z"/>
</g>
<g class="st1">
	<path class="st0" d="M497,187.1v-64.8l17.4-17.4H563l17.6,17.4v35.4h-72.4v25.6l11.2,11H558l11.2-10.8v-8.8h11.2v12.2l-17.6,17.6
		h-48.4L497,187.1z M569.3,147.9v-22l-11-11h-39.2l-11,11v22H569.3z"/>
	<path class="st0" d="M607.5,187.1v-64.8l17.4-17.4h46.4l17.4,17.4v10.2h-11.2v-6.8l-11-10.8h-36.8l-11,11v57.6l11,10.8h36.8
		l11-10.8v-6.6h11.2v10.2l-17.4,17.4h-46.4L607.5,187.1z"/>
	<path class="st0" d="M723.7,187.1v-72.4h-18v-9.8h18.4V72.5h10.8v32.4h31.2v10h-31.2v68.6l11,11h20.2v10h-25L723.7,187.1z"/>
	<path class="st0" d="M791.1,104.9h11v18.6l18.8-18.6h24.6v10h-21.4l-21.8,21.6v68h-11.2V104.9z"/>
	<path class="st0" d="M867.5,61.7h11.2v142.8h-11.2V61.7z"/>
	<path class="st0" d="M907.3,199.5v-7.4l5-4.8h7.4l4.8,4.8v7.4l-4.8,5h-7.4L907.3,199.5z"/>
	<path class="st0" d="M951.1,81.5v-7.6l5-5h7.2l5,5v7.6l-5,5h-7.2L951.1,81.5z M954.1,104.9h11.2v99.6h-11.2V104.9z"/>
	<path class="st0" d="M997.3,187.1v-64.8l17.4-17.4h49.6l17.4,17.4v64.8l-17.4,17.4h-49.6L997.3,187.1z M1059.5,194.3l11-10.8v-57.8
		l-11-10.8h-40l-11,10.8v57.8l11,10.8H1059.5z"/>
</g>
</svg>
