<svg id="Layer_1" data-name="Layer 1" xmlns="http://www.w3.org/2000/svg" viewBox="0 0 1095.73 309.58"><defs><style>.cls-1{font-size:200px;font-family:ChakraPetch-Light, Chakra Petch;font-weight:300;letter-spacing:-0.01em;}.cls-2{letter-spacing:0em;}</style></defs><path d="M310.1,154c-.13,27-7.08,52.21-19.91,75.79-8.58,15.7-20,29.11-33.44,41a144.34,144.34,0,0,1-31.37,21.15c-11.77,5.88-23.93,10.79-36.9,13.54C176.27,308,164,310,151.54,309.51a181.92,181.92,0,0,1-20.83-2.26c-6.55-1.06-13.14-2.21-19.38-4.42-8.67-3-17.12-6.81-25.44-10.66A132,132,0,0,1,62.8,278.23a154.89,154.89,0,0,1-26.5-24.86,148.91,148.91,0,0,1-22-34.64A157.32,157.32,0,0,1,1,170.6a151.24,151.24,0,0,1,6.2-62.87A153.72,153.72,0,0,1,36.21,55.22,151.71,151.71,0,0,1,82.26,18.06a154.87,154.87,0,0,1,44.16-15.4A165.85,165.85,0,0,1,149.33.14C162.82-.52,176.05,1.2,189.24,4c20,4.2,38.13,12.69,54.9,24.24a151.27,151.27,0,0,1,49.28,56.36,148.28,148.28,0,0,1,15.4,50C309.52,141,309.7,147.46,310.1,154ZM155.22,11.47a109.76,109.76,0,0,0-26.33,1.94A140.76,140.76,0,0,0,87.44,28c-18,9.78-33.62,22.3-46.19,38.58a148.64,148.64,0,0,0-20.61,35.92,134.42,134.42,0,0,0-8.36,33c-1.68,13.4-2,26.81.13,40.12a142.93,142.93,0,0,0,23.4,58.66,158,158,0,0,0,22.34,25.66c10.44,9.91,22.43,17.48,35.13,23.89a145.34,145.34,0,0,0,35.17,12,124.25,124.25,0,0,0,43,1.54,147.23,147.23,0,0,0,46.28-14.2A155,155,0,0,0,257.14,255a130.52,130.52,0,0,0,20.44-25.79,149.72,149.72,0,0,0,17.92-43.67,132.37,132.37,0,0,0,3.14-38.93,154.34,154.34,0,0,0-5.31-32.07,141.6,141.6,0,0,0-17.16-37.47,131.85,131.85,0,0,0-26.68-30.71C232.24,32,213,21.2,190.92,15.85,179.15,13,167.34,10.76,155.22,11.47Z"/><path d="M40.24,96.67c1.28,3.41,2.34,6.59,3.71,9.65,5.89,13.36,15.58,22.56,29.73,26.76,1,.31,2.21,1,2.3-.93.22-8.23.44-16.45-2.92-24.28A47.31,47.31,0,0,0,56.21,87.52c-2.66-1.82-5.49-3.37-8.19-5.14-2.52-1.68-3.27-4-2.16-6.46a4.75,4.75,0,0,1,6.28-2.47h0c2.12.88,2.92.09,4-1.55A101.81,101.81,0,0,1,98.28,33.68c12.65-6.2,26.14-9.47,40.12-10.8a143.93,143.93,0,0,1,19-.75c5.79.22,11.59,1.37,17.38,2.12a6.66,6.66,0,0,1,1.82.58c2.34,1.06,3.8,3.54,3.36,5.66a5.27,5.27,0,0,1-5.49,4.16c-3.18-.22-6.37-1-9.55-1.11-7.57-.22-15.09-.4-22.65-.26-11.11.17-21.77,3-32.12,6.85A88,88,0,0,0,79.39,59.51a82.14,82.14,0,0,0-14.91,19c-.75,1.33-.66,2,.62,3A52.7,52.7,0,0,1,76.78,93.66a5,5,0,0,0,.57.71c2.08-3.89,3.85-7.92,6.24-11.54,9.07-13.76,21.59-23.27,37-28.94a104.08,104.08,0,0,1,35.17-6.59c2.56,0,5.13-.22,7.69-.35,1.51-.09,2.26.4,2.22,2-.18,14,.39,28.09-.62,42-1.37,18.45-8.23,34.86-22.21,47.6a61.33,61.33,0,0,1-33.71,16.06c-6.55.89-13.23.71-19.87.93-3.31.09-3.36,0-3.36,3.45,0,2.88,0,5.71,0,8.58,0,3.37-2.21,5.71-5.13,5.67S76,171,75.94,167.59c0-6.86-.09-13.71,0-20.57,0-1.73-.53-2.57-2.21-3a58.79,58.79,0,0,1-41.9-40.66c-.49-1.63,0-2.47,1.51-3.14C35.72,99.19,37.89,97.91,40.24,96.67Zm115-26.85c-1.33,1.06-2.12,1.64-2.83,2.34C141.86,82.43,131.28,92.65,120.8,103c-10,9.86-19.87,20-30,29.72-3,2.88-5.7,5.45-5,10.14.26,1.76.62,2.56,2.52,2.47,4.29-.13,8.58,0,12.87-.09a49.47,49.47,0,0,0,21.5-5.17C140,131.58,149.64,117.16,154,98.8c1.81-7.75,1.28-15.62,1.37-23.49,0-1.64,0-3.28-.09-5.49ZM151.9,58.76l-.22-.62c-3.23.31-6.46.53-9.65,1a76.66,76.66,0,0,0-27.82,8.76,4.38,4.38,0,0,0-2.66,4.38c.13,7.79,0,15.58,0,23.36,0,.66.08,1.28.17,2.48ZM100.67,78.05c-13,12.83-18,27.56-13.85,45.61.58-.53.84-1.42,1.42-2,3.8-4,7.69-7.83,11.45-11.85a4.87,4.87,0,0,0,1.42-3c0-9-.13-18-.22-27C100.89,79.38,100.76,78.93,100.67,78.05Z"/><path d="M282.45,169.93c-1.24-.44-3.23-1.06-5.13-1.85a114.16,114.16,0,0,0-40.88-9.52c-14-.61-27.52,1.82-40.88,5.93-17.47,5.31-33,14.69-48.62,23.67A129.75,129.75,0,0,1,102,203.56c-2.35.35-4.16.44-5.53,3-5.31,9.78-21.64,11.19-28,.22a6.25,6.25,0,0,0-4.21-3.18,124.54,124.54,0,0,1-34.59-14.65,13.14,13.14,0,0,1-4-4,4.42,4.42,0,0,1,1.15-5.62c1.63-1.37,3.49-1.94,5.57-.84,4.69,2.48,9.2,5.27,14.07,7.3,6,2.57,12.3,4.56,18.45,6.77,1.37.49,2.12.13,2.74-1.33,2.74-6.37,7.61-9.86,14.64-10a15.62,15.62,0,0,1,15.31,10c.53,1.32,1.11,1.86,2.66,1.68a112.74,112.74,0,0,0,38.84-12.65c11.85-6.46,23.62-13.1,35.66-19.2,10.3-5.22,21.36-8.32,32.73-10.49a132.79,132.79,0,0,1,24-2.74,123.45,123.45,0,0,1,48.35,9.73,54.4,54.4,0,0,1,5.71,2.48,5.32,5.32,0,0,1,2.57,5.88C287.54,168.3,285.63,169.89,282.45,169.93ZM89.3,197.76a6.82,6.82,0,0,0-6.68-6.94,7.29,7.29,0,0,0-6.9,7.34,6.58,6.58,0,0,0,6.9,6.41A6.49,6.49,0,0,0,89.3,197.76Z"/><path d="M36.56,214.17c-.08-4.69,3.59-6.94,7.57-5.31,5.53,2.31,11,4.78,16.68,6.73,12.78,4.29,25.83,4.64,39.11,2.52,14.51-2.34,28.4-6.5,41.36-13.49,7.61-4.12,14.91-8.72,22.43-13,13.89-7.83,28.49-13.94,44.11-17.3a117.87,117.87,0,0,1,27.6-2.88,109.84,109.84,0,0,1,30.93,5.4c4.33,1.42,8.58,3.14,12.83,4.78a21.57,21.57,0,0,1,2.74,1.24c2.87,1.63,3.8,4.33,2.52,7.07-1.19,2.57-3.94,3.63-6.9,2.53-4.34-1.64-8.54-3.63-13-5.09a102.09,102.09,0,0,0-27.48-5A109.56,109.56,0,0,0,201.62,187a163.85,163.85,0,0,0-33.57,14.47c-10.22,5.7-20.18,11.9-30.75,16.85-15.79,7.43-32.69,10.84-50.17,11.73-16.81.84-32.07-4.3-47-11.2A5.58,5.58,0,0,1,36.56,214.17Z"/><path d="M222.42,76.81c-5.89,3.1-11.68,6.15-17.52,9.2a32.29,32.29,0,0,1-3.68,1.73c-2.3.84-4,1.94-5,4.42-1.68,4.11-9.64,7-14,5.22A11,11,0,0,1,175.3,85c1.06-5.53,5.75-9.68,11.19-9.11,2.48.27,4.78,2,7.21,2.92.71.27,1.73.66,2.3.35,6.24-3.09,12.44-6.32,19.29-9.82-2.3-1.55-3.89-2.83-5.66-3.76-4.42-2.34-8.89-4.55-13.4-6.68a3.26,3.26,0,0,0-2.48.27c-3.85,1.9-7.66,3.09-11.9,1.1a11.13,11.13,0,0,1-5.13-15.13c2.52-5.3,9.77-7.69,14.6-5.13,3.31,1.77,5.66,3.94,6.63,7.61a2.66,2.66,0,0,0,1.24,1.28C205.47,52.3,211.75,55.66,218,59a5.27,5.27,0,0,0,.84.3c3.09-5.92,7.65-10,14.64-10.57A16.21,16.21,0,0,1,245.73,53c6.33,5.45,7.21,15.62,1.9,22.52C241.44,83.49,232.33,84,222.42,76.81ZM241.48,65.4a6.81,6.81,0,0,0-6.81-7,7,7,0,0,0-6.81,6.86,6.9,6.9,0,0,0,6.9,7,6.71,6.71,0,0,0,6.77-6.59A.37.37,0,0,1,241.48,65.4Z"/><path d="M259.49,234.08c-2.08-.57-4.82-1.41-7.61-2.08a76.65,76.65,0,0,0-40.35,1.15c-15.17,4.51-28.84,11.95-42,20.49-8.63,5.61-17.39,11-27.08,14.64a101.7,101.7,0,0,1-29.19,6.24l-10.89.66A5.54,5.54,0,0,1,97,270.31a5.32,5.32,0,0,1,4.2-5.88,23.33,23.33,0,0,1,4.25-.31c14.37.13,28.18-2.52,40.92-9.29C153.09,251.25,159.46,247,166,243c15-9.2,30.53-17.39,47.87-21.5a106.5,106.5,0,0,1,18.45-2.3c9-.53,17.6,1.19,26.19,3.4,2.43.62,4.77,1.51,6.1,3.94C266.3,229.88,263.87,234,259.49,234.08Z"/><path d="M186.54,109.15c5.31.66,10.75,3.18,13.49,9.64a15.84,15.84,0,0,1-2.48,17.12c-6,7.3-14.24,8.32-22.34,3.32a2,2,0,0,0-1.86.27c-6.63,7-13.4,13.89-21.36,19.42-8.81,6.15-18.05,11.41-28.41,14.69a127.71,127.71,0,0,1-20.74,4.2,17,17,0,0,1-2.57.09c-3.14-.09-5.66-2.26-5.75-5a5.77,5.77,0,0,1,5.48-5.79,81.8,81.8,0,0,0,30.31-7.88c13.18-6.46,25.17-14.69,34.77-26,.44-.53,1-1.06,1.46-1.59a5.28,5.28,0,0,0,1.42-4.21C167.29,117.07,175,109.15,186.54,109.15Zm-1.86,23.27c3.94,0,6.64-2.74,6.68-6.77a6.9,6.9,0,0,0-6.81-6.81,7.24,7.24,0,0,0-6.77,6.77C177.65,129.5,180.61,132.37,184.68,132.42Z"/><path d="M281.48,109c0,7.43-5.18,14.29-12,15.92-8.09,2-15.44-1.32-19.07-8.58a3.22,3.22,0,0,0-3.31-2.08c-7.48,0-15,0-22.48,0a4.21,4.21,0,0,0-2.25,1c-6.33,4.6-14.38,2.83-17.17-3.81A11.11,11.11,0,0,1,210.47,97c5.31-2.65,11.28-.75,14.25,4.78a3.59,3.59,0,0,0,3.8,2.21c5.84-.09,11.72-.17,17.56,0,2.35,0,3.72-.57,4.78-2.78,2.83-5.76,7.74-8.72,14.11-8.81A16.37,16.37,0,0,1,281.48,109Zm-16.2-6.64a6.64,6.64,0,1,0-.17,13.27,6.37,6.37,0,0,0,6.72-6.68,6.62,6.62,0,0,0-6.55-6.59Z"/><path d="M66.38,247.18c.31-6.6,3.5-11.77,9.69-14.69a15.14,15.14,0,0,1,15.71,1.19c2.16,1.51,3.76,3.85,5.35,6a3.35,3.35,0,0,0,3,1.63c4.52-.09,9-.09,13.5,0a2.63,2.63,0,0,0,2.78-1.72c2.48-5.09,7.66-7.39,12.61-5.71a11,11,0,0,1,7.48,12.48c-.75,4.82-5.53,8.76-10.66,8.89a12,12,0,0,1-7.61-2.39,6.31,6.31,0,0,0-3.32-1.06c-4.69-.09-9.42,0-14.16-.09a2.92,2.92,0,0,0-3.18,2.12c-4.56,10.35-16.9,13.5-25.48,6.37C68.2,257,66.52,252.53,66.38,247.18Zm23,.39c0-3.76-2.61-6.59-6.1-6.63a6.88,6.88,0,0,0-7.17,6.68,6.69,6.69,0,0,0,6.59,6.77h.27c3.71,0,6.37-2.79,6.41-6.82Z"/><path d="M134.78,283.81c.62-.27,1.24-.53,1.9-.76A113.65,113.65,0,0,0,172,267a184.91,184.91,0,0,1,33.23-17.65,4.37,4.37,0,0,0,1.81-2.12c2.52-5.4,8.14-8.06,13.23-6.15a11,11,0,0,1,7,13.8,11.25,11.25,0,0,1-16.68,5.88,4.31,4.31,0,0,0-4.56-.35,149,149,0,0,0-23.62,12.92c-8,5.26-16,10.75-25.57,13.18a37.69,37.69,0,0,1-16.33.75C138.36,286.82,136.24,286.2,134.78,283.81Z"/><path d="M226.88,195.15A86.2,86.2,0,0,1,252,196.74a193.7,193.7,0,0,1,20.26,6.06c3.85,1.33,5.36,5.4,3.5,8.23-1.51,2.3-3.89,3-7,1.68A95.22,95.22,0,0,0,247,206.52c-12-1.77-24-1.46-35.75,2.26-5.08,1.63-10.08,3.58-15.13,5.31-3.76,1.28-6.68-.18-7.52-3.68a5.05,5.05,0,0,1,3.32-6c10.93-4.43,22-8.36,33.93-9.29A8,8,0,0,0,226.88,195.15Z"/><path d="M170.17,208.73A11.34,11.34,0,0,1,180.83,216c1.59,4.16.35,8.76-3.27,12a10.39,10.39,0,0,1-12.43,1.68c-1.15-.62-1.77-.18-2.66.4-4.29,2.79-8.58,5.57-13,8.18a4.29,4.29,0,0,1-5.53-.75c-2.92-2.83-2-7,1.64-8.76a86.68,86.68,0,0,0,8.89-5,10.74,10.74,0,0,0,5.36-7.26C160.7,211.87,165.52,208.69,170.17,208.73Z"/><path d="M67.44,167.1c.09,4.87-3,7.61-6.23,6.46a151.26,151.26,0,0,1-14.38-6.06c-8.27-3.89-15.4-9.51-22.34-15.31-2.44-2-3.14-4.46-2.13-6.81a5,5,0,0,1,5.53-3.1,8.27,8.27,0,0,1,3,1.42c3.54,2.65,7,5.4,10.49,8.1,6.59,5,14.11,8.31,21.67,11.5C65.5,164.32,67.4,165.64,67.44,167.1Z"/><path d="M234.8,138.08a6.28,6.28,0,0,1-6.54-6.41,6.38,6.38,0,0,1,6.63-6.64,6.59,6.59,0,0,1,6.68,6.42C241.66,134.81,238.39,138,234.8,138.08Z"/><path d="M234.58,246.11a6.46,6.46,0,0,1,6.64-6.59,6.15,6.15,0,0,1,6.46,6.2,6.62,6.62,0,0,1-6.37,6.77,6.52,6.52,0,0,1-6.73-6.38Z"/><path d="M31.08,133.75A6.36,6.36,0,0,1,25,127.46a6.26,6.26,0,0,1,6.24-6.32h.26a6.5,6.5,0,0,1,6.28,6.37A6.73,6.73,0,0,1,31.08,133.75Z"/><path d="M276.21,144a5.39,5.39,0,0,1-5.44-5.45,5.91,5.91,0,0,1,5.62-5.84c2.7,0,5.4,2.79,5.44,5.58A6.14,6.14,0,0,1,276.21,144Z"/><path d="M257,75.7a5.55,5.55,0,0,1,5.53,5.36c0,2.78-3,5.79-5.79,5.79a6,6,0,0,1-5.36-5.66A5.58,5.58,0,0,1,257,75.7Z"/><path d="M213.39,35.8a5.49,5.49,0,0,1,5.35,5.66v.09A6,6,0,0,1,213,46.86a5.8,5.8,0,0,1-5.35-5.4,5.57,5.57,0,0,1,5.57-5.62A.39.39,0,0,1,213.39,35.8Z"/><path d="M213.57,129.41a5.26,5.26,0,0,1,5.26,5.35V135a5.31,5.31,0,0,1-10.62-.22A5.48,5.48,0,0,1,213.57,129.41Z"/><path d="M255.82,140.56a4.69,4.69,0,0,1-4.87-4.51v-.31c0-2.83,2.39-5.4,5-5.4s5.22,2.83,5.26,5.26S258.65,140.56,255.82,140.56Z"/><path d="M237.15,89a4,4,0,0,1,4.07,4,4.12,4.12,0,0,1-4.51,3.85,4,4,0,0,1-3.54-4.34,3.75,3.75,0,0,1,3.93-3.58S237.1,89,237.15,89Z"/><path d="M192.33,34.16A2.87,2.87,0,0,1,189.19,31a2.56,2.56,0,0,1,2.66-2.75c2-.13,3.76,1.33,3.71,3A2.89,2.89,0,0,1,192.33,34.16Z"/><text class="cls-1" transform="translate(346.15 204.5)">w<tspan class="cls-2" x="136.8" y="0">ectrl.io</tspan></text></svg>